<svg xmlns="http://www.w3.org/2000/svg" xmlns:xlink="http://www.w3.org/1999/xlink" width="50" zoomAndPan="magnify" viewBox="0 0 37.5 37.499999" height="50" preserveAspectRatio="xMidYMid meet" version="1.0"><defs><g/><clipPath id="6a77b2132c"><path d="M 3.609375 14 L 16 14 L 16 27 L 3.609375 27 Z M 3.609375 14 " clip-rule="nonzero"/></clipPath><clipPath id="a8472d3e09"><path d="M 17 0 L 33.214844 0 L 33.214844 31.824219 L 17 31.824219 Z M 17 0 " clip-rule="nonzero"/></clipPath></defs><path fill="#fa0b0b" d="M 9.976562 8.679688 L 9.894531 8.550781 C 9.921875 8.472656 10.03125 8.386719 10.03125 8.386719 L 10.109375 8.515625 C 10.023438 8.574219 9.976562 8.679688 9.976562 8.679688 Z M 10.972656 7.664062 L 11.089844 7.847656 L 11.003906 7.902344 L 10.886719 7.714844 Z M 11.863281 7.125 L 11.957031 7.273438 C 11.582031 7.496094 11.269531 7.707031 11.269531 7.707031 L 11.175781 7.558594 C 11.449219 7.359375 11.863281 7.125 11.863281 7.125 Z M 12.152344 6.917969 L 12.269531 7.105469 L 12.183594 7.160156 L 12.066406 6.972656 Z M 13.308594 6.398438 L 13.390625 6.527344 C 13.390625 6.527344 13.277344 6.527344 13.183594 6.578125 L 13.101562 6.449219 C 13.101562 6.449219 13.226562 6.390625 13.308594 6.398438 Z M 11.628906 7.535156 L 11.648438 7.523438 C 12.371094 7.066406 12.992188 6.765625 13.382812 6.589844 C 13.4375 6.5625 13.5 6.550781 13.558594 6.546875 L 13.417969 6.324219 C 13.347656 6.300781 13.269531 6.304688 13.199219 6.335938 C 12.808594 6.507812 12.199219 6.808594 11.480469 7.261719 L 11.464844 7.273438 C 10.746094 7.726562 10.210938 8.148438 9.886719 8.421875 C 9.828125 8.472656 9.792969 8.542969 9.78125 8.613281 L 9.921875 8.839844 C 9.949219 8.789062 9.988281 8.738281 10.035156 8.699219 C 10.363281 8.421875 10.902344 7.992188 11.628906 7.535156 Z M 11.910156 10 L 12.601562 11.097656 C 12.667969 11.027344 12.738281 10.96875 12.738281 10.96875 L 11.929688 9.683594 C 11.929688 9.683594 11.808594 9.84375 11.910156 10 Z M 21.28125 10.96875 C 21.28125 10.96875 21.351562 11.027344 21.417969 11.097656 L 22.109375 10 C 22.210938 9.84375 22.089844 9.683594 22.089844 9.683594 Z M 17.566406 13.425781 L 17.546875 13.425781 C 17.550781 13.425781 17.558594 13.429688 17.5625 13.429688 Z M 20.613281 9.675781 C 20.492188 9.867188 20.546875 10.117188 20.730469 10.246094 C 20.722656 10.242188 20.714844 10.242188 20.710938 10.238281 C 20.511719 10.113281 20.453125 9.851562 20.578125 9.652344 C 20.703125 9.457031 20.960938 9.394531 21.160156 9.519531 C 21.167969 9.523438 21.171875 9.527344 21.179688 9.535156 C 20.984375 9.425781 20.734375 9.484375 20.613281 9.675781 Z M 21.179688 9.433594 C 20.957031 9.292969 20.652344 9.367188 20.503906 9.605469 C 20.351562 9.84375 20.414062 10.148438 20.640625 10.292969 C 20.867188 10.433594 21.171875 10.359375 21.320312 10.121094 C 21.46875 9.882812 21.40625 9.578125 21.179688 9.433594 Z M 20.265625 8.835938 L 19.574219 9.9375 C 19.667969 9.964844 19.75 10 19.75 10 L 20.558594 8.71875 C 20.558594 8.71875 20.363281 8.679688 20.265625 8.835938 Z M 13.460938 8.71875 L 14.269531 10 C 14.269531 10 14.351562 9.964844 14.445312 9.9375 L 13.753906 8.835938 C 13.65625 8.679688 13.460938 8.71875 13.460938 8.71875 Z M 24.042969 8.679688 C 24.042969 8.679688 23.996094 8.574219 23.910156 8.515625 L 23.988281 8.386719 C 23.988281 8.386719 24.097656 8.472656 24.125 8.550781 Z M 23.015625 7.902344 L 22.929688 7.847656 L 23.046875 7.664062 L 23.132812 7.714844 Z M 22.75 7.707031 C 22.75 7.707031 22.4375 7.496094 22.0625 7.273438 L 22.15625 7.125 C 22.15625 7.125 22.570312 7.359375 22.84375 7.558594 Z M 21.835938 7.160156 L 21.75 7.105469 L 21.867188 6.917969 L 21.953125 6.972656 Z M 20.835938 6.578125 C 20.742188 6.527344 20.628906 6.527344 20.628906 6.527344 L 20.710938 6.398438 C 20.792969 6.390625 20.917969 6.449219 20.917969 6.449219 Z M 24.132812 8.421875 C 23.808594 8.148438 23.273438 7.726562 22.554688 7.273438 L 22.539062 7.261719 C 21.820312 6.808594 21.210938 6.507812 20.820312 6.335938 C 20.75 6.304688 20.671875 6.300781 20.601562 6.324219 L 20.460938 6.546875 C 20.519531 6.550781 20.582031 6.5625 20.636719 6.589844 C 21.027344 6.765625 21.648438 7.066406 22.371094 7.523438 L 22.390625 7.535156 C 23.117188 7.992188 23.65625 8.421875 23.984375 8.699219 C 24.03125 8.738281 24.070312 8.789062 24.097656 8.839844 L 24.238281 8.613281 C 24.226562 8.542969 24.191406 8.472656 24.132812 8.421875 Z M 23.792969 9.074219 C 23.792969 9.074219 23.746094 8.972656 23.660156 8.910156 L 23.738281 8.78125 C 23.738281 8.78125 23.847656 8.867188 23.875 8.949219 Z M 22.777344 8.277344 L 22.695312 8.226562 L 22.8125 8.039062 L 22.898438 8.09375 Z M 22.507812 8.089844 C 22.507812 8.089844 22.199219 7.878906 21.824219 7.65625 L 21.917969 7.507812 C 21.917969 7.507812 22.332031 7.738281 22.601562 7.941406 Z M 21.597656 7.535156 L 21.511719 7.480469 L 21.628906 7.292969 L 21.714844 7.347656 Z M 20.585938 6.972656 C 20.492188 6.921875 20.378906 6.921875 20.378906 6.921875 L 20.460938 6.796875 C 20.542969 6.785156 20.667969 6.847656 20.667969 6.847656 Z M 23.886719 8.8125 C 23.5625 8.539062 23.027344 8.117188 22.308594 7.664062 L 22.292969 7.652344 C 21.574219 7.199219 20.960938 6.898438 20.574219 6.726562 C 20.503906 6.695312 20.425781 6.691406 20.355469 6.714844 L 20.214844 6.941406 C 20.273438 6.941406 20.332031 6.953125 20.390625 6.980469 C 20.78125 7.15625 21.402344 7.460938 22.125 7.914062 L 22.144531 7.925781 C 22.867188 8.382812 23.410156 8.8125 23.738281 9.089844 C 23.785156 9.128906 23.824219 9.179688 23.851562 9.230469 L 23.992188 9.003906 C 23.980469 8.933594 23.945312 8.863281 23.886719 8.8125 Z M 13.308594 10.238281 C 13.304688 10.242188 13.296875 10.242188 13.289062 10.246094 C 13.472656 10.117188 13.523438 9.867188 13.40625 9.675781 C 13.285156 9.484375 13.035156 9.425781 12.839844 9.535156 C 12.847656 9.527344 12.851562 9.523438 12.859375 9.519531 C 13.058594 9.394531 13.316406 9.457031 13.441406 9.652344 C 13.566406 9.851562 13.507812 10.113281 13.308594 10.238281 Z M 12.835938 9.433594 C 12.613281 9.578125 12.550781 9.882812 12.699219 10.121094 C 12.847656 10.359375 13.152344 10.433594 13.378906 10.292969 C 13.605469 10.148438 13.667969 9.84375 13.515625 9.605469 C 13.367188 9.367188 13.0625 9.292969 12.835938 9.433594 Z M 24.402344 8.113281 L 24.289062 8.289062 C 24.289062 8.289062 24.207031 8.171875 24.140625 8.148438 L 24.320312 7.863281 C 24.320312 7.863281 24.425781 7.949219 24.402344 8.113281 Z M 23.304688 7.445312 L 23.21875 7.394531 L 23.382812 7.132812 L 23.46875 7.1875 Z M 23.023438 7.269531 C 23.023438 7.269531 22.71875 7.050781 22.339844 6.839844 L 22.511719 6.5625 C 22.511719 6.5625 22.9375 6.777344 23.195312 6.996094 Z M 22.125 6.703125 L 22.039062 6.648438 L 22.203125 6.386719 L 22.285156 6.441406 Z M 21.066406 6.210938 C 21.019531 6.160156 20.875 6.136719 20.875 6.136719 L 20.988281 5.960938 C 21.121094 5.867188 21.246094 5.925781 21.246094 5.925781 Z M 24.398438 7.773438 C 24.117188 7.539062 23.605469 7.128906 22.910156 6.691406 C 22.214844 6.253906 21.625 5.964844 21.292969 5.816406 C 21.125 5.742188 20.929688 5.800781 20.832031 5.957031 L 20.707031 6.15625 C 20.765625 6.160156 20.828125 6.171875 20.882812 6.199219 C 21.273438 6.375 21.894531 6.675781 22.621094 7.132812 C 22.625 7.136719 22.632812 7.140625 22.636719 7.144531 C 23.363281 7.601562 23.902344 8.03125 24.230469 8.308594 C 24.277344 8.347656 24.316406 8.398438 24.34375 8.449219 L 24.46875 8.25 C 24.566406 8.09375 24.535156 7.894531 24.398438 7.773438 Z M 10.226562 9.074219 L 10.144531 8.949219 C 10.171875 8.867188 10.28125 8.78125 10.28125 8.78125 L 10.359375 8.910156 C 10.273438 8.972656 10.226562 9.074219 10.226562 9.074219 Z M 11.207031 8.039062 L 11.324219 8.226562 L 11.238281 8.277344 L 11.121094 8.09375 Z M 12.101562 7.507812 L 12.195312 7.65625 C 11.820312 7.878906 11.511719 8.089844 11.511719 8.089844 L 11.417969 7.941406 C 11.6875 7.738281 12.101562 7.507812 12.101562 7.507812 Z M 12.390625 7.292969 L 12.507812 7.480469 L 12.421875 7.535156 L 12.304688 7.347656 Z M 13.558594 6.796875 L 13.640625 6.921875 C 13.640625 6.921875 13.527344 6.921875 13.433594 6.972656 L 13.351562 6.847656 C 13.351562 6.847656 13.476562 6.785156 13.558594 6.796875 Z M 11.875 7.925781 L 11.894531 7.914062 C 12.617188 7.460938 13.238281 7.15625 13.628906 6.980469 C 13.6875 6.953125 13.746094 6.941406 13.804688 6.941406 L 13.664062 6.714844 C 13.59375 6.691406 13.515625 6.695312 13.445312 6.726562 C 13.058594 6.898438 12.445312 7.199219 11.726562 7.652344 L 11.710938 7.664062 C 10.992188 8.117188 10.457031 8.539062 10.132812 8.8125 C 10.074219 8.863281 10.039062 8.933594 10.027344 9.003906 L 10.167969 9.230469 C 10.195312 9.179688 10.234375 9.128906 10.28125 9.089844 C 10.609375 8.8125 11.152344 8.382812 11.875 7.925781 Z M 14.5 9.980469 C 13.796875 10.242188 13.152344 10.648438 12.617188 11.167969 C 12.605469 11.179688 12.597656 11.1875 12.589844 11.195312 L 11.839844 10.011719 C 11.753906 9.871094 11.792969 9.6875 11.933594 9.601562 L 13.378906 8.6875 C 13.515625 8.601562 13.699219 8.644531 13.789062 8.78125 L 14.535156 9.96875 C 14.523438 9.972656 14.511719 9.976562 14.5 9.980469 Z M 11.886719 11.707031 L 10.402344 9.355469 C 10.402344 9.355469 10.425781 9.246094 10.53125 9.179688 L 12.109375 11.683594 C 12.109375 11.683594 11.96875 11.839844 11.886719 11.707031 Z M 11.496094 8.5 L 12.082031 9.421875 L 11.996094 9.476562 L 11.414062 8.550781 Z M 12.394531 7.96875 L 12.960938 8.871094 L 12.277344 9.300781 L 11.707031 8.402344 C 12.023438 8.121094 12.394531 7.96875 12.394531 7.96875 Z M 12.679688 7.753906 L 13.261719 8.679688 L 13.175781 8.734375 L 12.59375 7.808594 Z M 13.816406 7.203125 L 15.300781 9.554688 C 15.382812 9.6875 15.183594 9.75 15.183594 9.75 L 13.601562 7.246094 C 13.707031 7.179688 13.816406 7.203125 13.816406 7.203125 Z M 14.59375 10.0625 C 14.714844 10.023438 14.816406 9.992188 14.890625 9.972656 C 14.996094 9.945312 15.09375 9.902344 15.1875 9.84375 L 15.421875 9.695312 C 15.46875 9.664062 15.484375 9.601562 15.453125 9.550781 L 13.910156 7.105469 C 13.839844 7.082031 13.761719 7.085938 13.691406 7.117188 C 13.304688 7.292969 12.691406 7.59375 11.972656 8.042969 L 11.964844 8.050781 C 11.242188 8.503906 10.703125 8.929688 10.378906 9.203125 C 10.320312 9.253906 10.285156 9.324219 10.273438 9.394531 L 11.816406 11.84375 C 11.847656 11.894531 11.910156 11.90625 11.960938 11.878906 L 12.195312 11.730469 C 12.285156 11.671875 12.367188 11.601562 12.4375 11.519531 C 12.488281 11.460938 12.558594 11.382812 12.648438 11.292969 C 12.65625 11.28125 12.664062 11.273438 12.675781 11.265625 C 13.207031 10.734375 13.851562 10.328125 14.558594 10.078125 C 14.570312 10.074219 14.582031 10.066406 14.59375 10.0625 Z M 9.730469 8.289062 L 9.617188 8.113281 C 9.59375 7.949219 9.699219 7.863281 9.699219 7.863281 L 9.878906 8.148438 C 9.8125 8.171875 9.730469 8.289062 9.730469 8.289062 Z M 10.636719 7.132812 L 10.800781 7.394531 L 10.714844 7.445312 L 10.550781 7.1875 Z M 11.507812 6.5625 L 11.679688 6.839844 C 11.300781 7.050781 10.996094 7.269531 10.996094 7.269531 L 10.824219 6.996094 C 11.082031 6.777344 11.507812 6.5625 11.507812 6.5625 Z M 11.816406 6.386719 L 11.980469 6.648438 L 11.894531 6.703125 L 11.734375 6.441406 Z M 13.03125 5.960938 L 13.144531 6.136719 C 13.144531 6.136719 13.003906 6.160156 12.953125 6.210938 L 12.773438 5.925781 C 12.773438 5.925781 12.898438 5.867188 13.03125 5.960938 Z M 11.382812 7.144531 C 11.386719 7.140625 11.394531 7.136719 11.398438 7.132812 C 12.125 6.675781 12.742188 6.375 13.136719 6.199219 C 13.191406 6.171875 13.253906 6.160156 13.3125 6.15625 L 13.1875 5.957031 C 13.089844 5.800781 12.894531 5.742188 12.726562 5.816406 C 12.394531 5.964844 11.804688 6.253906 11.109375 6.691406 C 10.414062 7.128906 9.902344 7.539062 9.621094 7.773438 C 9.484375 7.894531 9.453125 8.09375 9.550781 8.25 L 9.675781 8.449219 C 9.703125 8.398438 9.742188 8.347656 9.789062 8.308594 C 10.117188 8.03125 10.65625 7.601562 11.382812 7.144531 Z M 14.117188 11.464844 C 13.984375 11.546875 13.945312 11.722656 14.027344 11.855469 L 14.167969 12.074219 L 14.839844 12.074219 L 14.511719 11.554688 C 14.425781 11.421875 14.25 11.378906 14.117188 11.464844 Z M 20.40625 10.667969 C 20.40625 10.667969 20.40625 10.667969 20.402344 10.667969 C 20.171875 10.519531 19.925781 10.394531 19.667969 10.289062 C 19.617188 10.503906 19.53125 10.707031 19.410156 10.898438 L 18.667969 12.074219 L 19.058594 12.074219 L 19.421875 11.5 C 19.535156 11.320312 19.777344 11.265625 19.957031 11.378906 C 20.136719 11.492188 20.191406 11.730469 20.078125 11.910156 L 19.972656 12.074219 C 19.984375 12.074219 19.988281 12.074219 19.988281 12.074219 C 20.113281 12.074219 20.234375 12.085938 20.355469 12.097656 L 20.628906 11.667969 C 20.75 11.476562 20.898438 11.3125 21.066406 11.167969 C 20.863281 10.984375 20.640625 10.820312 20.410156 10.671875 C 20.40625 10.671875 20.40625 10.671875 20.40625 10.667969 Z M 22.132812 11.707031 C 22.050781 11.839844 21.910156 11.683594 21.910156 11.683594 L 23.488281 9.179688 C 23.59375 9.246094 23.617188 9.355469 23.617188 9.355469 Z M 21.429688 11.195312 C 21.421875 11.1875 21.414062 11.179688 21.402344 11.167969 C 20.867188 10.648438 20.222656 10.242188 19.519531 9.980469 C 19.507812 9.976562 19.496094 9.972656 19.484375 9.96875 L 20.230469 8.78125 C 20.320312 8.644531 20.503906 8.601562 20.640625 8.6875 L 22.085938 9.601562 C 22.226562 9.6875 22.265625 9.871094 22.179688 10.011719 Z M 18.835938 9.75 C 18.835938 9.75 18.636719 9.6875 18.71875 9.554688 L 20.203125 7.203125 C 20.203125 7.203125 20.3125 7.179688 20.417969 7.246094 Z M 21.339844 7.753906 L 21.425781 7.808594 L 20.84375 8.734375 L 20.757812 8.679688 Z M 22.3125 8.402344 L 21.742188 9.300781 L 21.058594 8.871094 L 21.625 7.96875 C 21.625 7.96875 21.996094 8.121094 22.3125 8.402344 Z M 22.605469 8.550781 L 22.023438 9.476562 L 21.9375 9.421875 L 22.523438 8.5 Z M 23.640625 9.203125 C 23.3125 8.929688 22.777344 8.503906 22.054688 8.050781 L 22.046875 8.042969 C 21.328125 7.59375 20.714844 7.292969 20.328125 7.117188 C 20.257812 7.085938 20.179688 7.082031 20.109375 7.105469 L 18.566406 9.550781 C 18.535156 9.601562 18.550781 9.664062 18.597656 9.695312 L 18.832031 9.84375 C 18.925781 9.902344 19.023438 9.945312 19.128906 9.972656 C 19.203125 9.992188 19.304688 10.023438 19.425781 10.0625 C 19.4375 10.066406 19.449219 10.074219 19.460938 10.078125 C 20.167969 10.328125 20.8125 10.734375 21.34375 11.265625 C 21.351562 11.273438 21.363281 11.28125 21.371094 11.292969 C 21.460938 11.382812 21.53125 11.460938 21.578125 11.519531 C 21.652344 11.601562 21.734375 11.671875 21.824219 11.730469 L 22.058594 11.878906 C 22.109375 11.90625 22.171875 11.894531 22.203125 11.84375 L 23.746094 9.394531 C 23.734375 9.324219 23.699219 9.253906 23.640625 9.203125 Z M 15.351562 12.074219 L 14.609375 10.898438 C 14.488281 10.707031 14.402344 10.503906 14.351562 10.289062 C 14.09375 10.394531 13.847656 10.519531 13.617188 10.667969 C 13.613281 10.667969 13.613281 10.667969 13.613281 10.667969 C 13.613281 10.671875 13.613281 10.671875 13.609375 10.671875 C 13.378906 10.820312 13.15625 10.984375 12.953125 11.167969 C 13.121094 11.3125 13.269531 11.476562 13.390625 11.667969 L 13.664062 12.097656 C 13.785156 12.085938 13.90625 12.074219 14.03125 12.074219 L 14.046875 12.074219 L 13.941406 11.910156 C 13.828125 11.730469 13.882812 11.492188 14.0625 11.378906 C 14.242188 11.265625 14.484375 11.320312 14.597656 11.5 L 14.960938 12.074219 Z M 19.902344 11.464844 C 19.769531 11.378906 19.59375 11.421875 19.507812 11.554688 L 19.179688 12.074219 L 19.851562 12.074219 L 19.992188 11.855469 C 20.074219 11.722656 20.035156 11.546875 19.902344 11.464844 " fill-opacity="1" fill-rule="nonzero"/><g clip-path="url(#6a77b2132c)"><path fill="#fa0b0b" d="M 15.878906 20.617188 C 15.875 20.605469 15.867188 20.601562 15.863281 20.589844 L 15.394531 20.382812 C 15.390625 20.375 15.386719 20.367188 15.378906 20.359375 C 15.355469 20.082031 15.3125 19.816406 15.253906 19.554688 C 15.253906 19.542969 15.257812 19.535156 15.261719 19.527344 L 15.640625 19.183594 C 15.648438 19.175781 15.652344 19.164062 15.648438 19.15625 C 15.609375 19.011719 15.5625 18.871094 15.511719 18.730469 C 15.507812 18.722656 15.5 18.714844 15.488281 18.714844 L 14.980469 18.660156 C 14.96875 18.660156 14.960938 18.652344 14.957031 18.640625 C 14.851562 18.390625 14.726562 18.148438 14.585938 17.917969 C 14.582031 17.90625 14.582031 17.894531 14.585938 17.886719 L 14.839844 17.445312 C 14.847656 17.433594 14.84375 17.421875 14.839844 17.414062 C 14.757812 17.289062 14.667969 17.171875 14.578125 17.054688 C 14.566406 17.050781 14.558594 17.046875 14.546875 17.042969 L 14.050781 17.148438 C 14.039062 17.144531 14.03125 17.144531 14.019531 17.140625 C 13.84375 16.933594 13.652344 16.742188 13.445312 16.566406 C 13.441406 16.554688 13.441406 16.546875 13.4375 16.535156 L 13.542969 16.039062 C 13.542969 16.027344 13.539062 16.015625 13.53125 16.007812 C 13.414062 15.917969 13.296875 15.828125 13.171875 15.746094 C 13.164062 15.742188 13.152344 15.738281 13.140625 15.746094 L 12.699219 16 C 12.691406 16.003906 12.679688 16.003906 12.667969 16 C 12.4375 15.859375 12.195312 15.734375 11.945312 15.628906 C 11.933594 15.625 11.925781 15.617188 11.925781 15.605469 L 11.871094 15.097656 C 11.871094 15.085938 11.863281 15.078125 11.855469 15.074219 C 11.714844 15.023438 11.574219 14.976562 11.433594 14.9375 C 11.421875 14.933594 11.410156 14.9375 11.402344 14.945312 L 11.058594 15.324219 C 11.050781 15.328125 11.042969 15.332031 11.03125 15.332031 C 10.769531 15.273438 10.503906 15.230469 10.226562 15.207031 C 10.21875 15.199219 10.210938 15.195312 10.203125 15.191406 L 9.996094 14.722656 C 9.984375 14.71875 9.980469 14.710938 9.96875 14.707031 C 9.894531 14.703125 9.820312 14.703125 9.746094 14.703125 C 9.671875 14.703125 9.597656 14.703125 9.523438 14.707031 C 9.515625 14.710938 9.507812 14.71875 9.5 14.722656 L 9.289062 15.191406 C 9.28125 15.195312 9.277344 15.199219 9.265625 15.207031 C 8.992188 15.230469 8.722656 15.273438 8.460938 15.332031 C 8.453125 15.332031 8.445312 15.328125 8.433594 15.324219 L 8.09375 14.945312 C 8.085938 14.9375 8.074219 14.933594 8.0625 14.9375 C 7.921875 14.976562 7.777344 15.023438 7.640625 15.074219 C 7.628906 15.078125 7.625 15.085938 7.621094 15.097656 L 7.566406 15.605469 C 7.566406 15.617188 7.558594 15.625 7.550781 15.628906 C 7.300781 15.734375 7.054688 15.859375 6.824219 16 C 6.816406 16.003906 6.804688 16.003906 6.796875 16 L 6.351562 15.746094 C 6.34375 15.738281 6.332031 15.742188 6.320312 15.746094 C 6.199219 15.828125 6.078125 15.917969 5.960938 16.007812 C 5.953125 16.015625 5.949219 16.027344 5.953125 16.039062 L 6.058594 16.535156 C 6.054688 16.546875 6.050781 16.554688 6.046875 16.566406 C 5.84375 16.742188 5.652344 16.933594 5.472656 17.140625 C 5.464844 17.144531 5.457031 17.144531 5.445312 17.148438 L 4.945312 17.042969 C 4.933594 17.046875 4.925781 17.050781 4.917969 17.054688 C 4.824219 17.171875 4.738281 17.289062 4.65625 17.414062 C 4.65625 17.425781 4.65625 17.433594 4.652344 17.445312 L 4.910156 17.886719 C 4.914062 17.894531 4.914062 17.90625 4.910156 17.917969 C 4.769531 18.148438 4.644531 18.390625 4.539062 18.640625 C 4.53125 18.648438 4.523438 18.652344 4.515625 18.660156 L 4.007812 18.714844 C 3.996094 18.714844 3.984375 18.722656 3.980469 18.730469 C 3.929688 18.871094 3.886719 19.011719 3.84375 19.15625 C 3.84375 19.164062 3.84375 19.175781 3.855469 19.183594 L 4.234375 19.527344 C 4.238281 19.535156 4.238281 19.542969 4.242188 19.554688 C 4.179688 19.816406 4.136719 20.082031 4.117188 20.359375 C 4.109375 20.367188 4.105469 20.375 4.097656 20.382812 L 3.632812 20.589844 C 3.625 20.601562 3.621094 20.605469 3.613281 20.617188 C 3.613281 20.691406 3.609375 20.765625 3.609375 20.839844 C 3.609375 20.914062 3.613281 20.988281 3.613281 21.0625 C 3.621094 21.070312 3.625 21.078125 3.632812 21.085938 L 4.097656 21.296875 C 4.105469 21.304688 4.109375 21.3125 4.117188 21.320312 C 4.136719 21.59375 4.179688 21.863281 4.242188 22.125 C 4.238281 22.132812 4.238281 22.140625 4.234375 22.152344 L 3.855469 22.492188 C 3.84375 22.5 3.84375 22.511719 3.84375 22.523438 C 3.886719 22.664062 3.929688 22.808594 3.980469 22.945312 C 3.992188 22.953125 3.996094 22.957031 4.007812 22.964844 L 4.515625 23.019531 C 4.523438 23.023438 4.53125 23.027344 4.539062 23.035156 C 4.644531 23.285156 4.769531 23.53125 4.910156 23.761719 C 4.914062 23.769531 4.914062 23.78125 4.910156 23.789062 L 4.652344 24.234375 C 4.648438 24.242188 4.648438 24.253906 4.65625 24.265625 C 4.738281 24.386719 4.824219 24.507812 4.917969 24.625 C 4.921875 24.632812 4.933594 24.636719 4.945312 24.632812 L 5.421875 24.53125 C 5.402344 24.511719 5.394531 24.484375 5.390625 24.457031 C 5.390625 24.453125 5.390625 24.445312 5.390625 24.441406 C 5.390625 24.085938 5.496094 23.714844 5.683594 23.402344 C 5.222656 22.667969 4.949219 21.796875 4.945312 20.867188 C 4.929688 18.203125 7.113281 16.023438 9.773438 16.035156 C 12.40625 16.050781 14.535156 18.179688 14.550781 20.8125 C 14.5625 23.476562 12.382812 25.65625 9.71875 25.640625 C 9.367188 25.640625 9.027344 25.597656 8.695312 25.527344 C 8.667969 25.578125 8.640625 25.628906 8.609375 25.675781 C 8.609375 25.679688 8.605469 25.679688 8.605469 25.679688 C 8.59375 25.699219 8.582031 25.714844 8.574219 25.730469 C 8.472656 25.875 8.355469 26.003906 8.222656 26.113281 C 8.195312 26.136719 8.164062 26.160156 8.128906 26.183594 C 7.9375 26.335938 7.753906 26.40625 7.605469 26.441406 L 7.621094 26.578125 C 7.621094 26.589844 7.628906 26.601562 7.640625 26.605469 C 7.777344 26.65625 7.917969 26.699219 8.0625 26.742188 C 8.074219 26.742188 8.085938 26.742188 8.09375 26.734375 L 8.433594 26.351562 C 8.445312 26.347656 8.453125 26.347656 8.460938 26.34375 C 8.722656 26.40625 8.992188 26.449219 9.265625 26.46875 C 9.277344 26.476562 9.28125 26.480469 9.289062 26.488281 L 9.5 26.953125 C 9.507812 26.960938 9.515625 26.964844 9.523438 26.972656 C 9.597656 26.972656 9.671875 26.976562 9.746094 26.976562 C 9.820312 26.976562 9.894531 26.972656 9.96875 26.972656 C 9.980469 26.964844 9.984375 26.960938 9.996094 26.953125 L 10.203125 26.488281 C 10.210938 26.480469 10.21875 26.476562 10.226562 26.46875 C 10.5 26.449219 10.769531 26.40625 11.03125 26.34375 C 11.042969 26.347656 11.050781 26.347656 11.058594 26.351562 L 11.402344 26.734375 C 11.410156 26.742188 11.421875 26.742188 11.433594 26.742188 C 11.574219 26.699219 11.714844 26.65625 11.855469 26.605469 C 11.863281 26.601562 11.871094 26.589844 11.871094 26.578125 L 11.925781 26.070312 C 11.925781 26.0625 11.933594 26.050781 11.945312 26.046875 C 12.195312 25.941406 12.4375 25.816406 12.667969 25.675781 C 12.679688 25.671875 12.691406 25.671875 12.699219 25.675781 L 13.140625 25.933594 C 13.152344 25.9375 13.164062 25.9375 13.171875 25.929688 C 13.296875 25.847656 13.414062 25.761719 13.53125 25.667969 C 13.539062 25.664062 13.542969 25.652344 13.542969 25.640625 L 13.4375 25.140625 C 13.441406 25.128906 13.441406 25.121094 13.445312 25.113281 C 13.652344 24.933594 13.84375 24.742188 14.019531 24.539062 C 14.03125 24.535156 14.039062 24.53125 14.050781 24.527344 L 14.546875 24.632812 C 14.558594 24.636719 14.570312 24.632812 14.578125 24.625 C 14.667969 24.507812 14.757812 24.386719 14.839844 24.265625 C 14.84375 24.253906 14.847656 24.242188 14.839844 24.234375 L 14.585938 23.789062 C 14.582031 23.78125 14.582031 23.769531 14.585938 23.761719 C 14.726562 23.53125 14.851562 23.285156 14.957031 23.035156 C 14.960938 23.027344 14.96875 23.019531 14.980469 23.019531 L 15.488281 22.964844 C 15.5 22.964844 15.507812 22.957031 15.511719 22.945312 C 15.5625 22.808594 15.609375 22.664062 15.648438 22.523438 C 15.652344 22.511719 15.648438 22.5 15.640625 22.492188 L 15.261719 22.152344 C 15.257812 22.140625 15.253906 22.132812 15.253906 22.125 C 15.3125 21.863281 15.355469 21.59375 15.378906 21.320312 C 15.386719 21.3125 15.390625 21.304688 15.394531 21.296875 L 15.863281 21.085938 C 15.867188 21.078125 15.875 21.070312 15.878906 21.0625 C 15.882812 20.988281 15.882812 20.914062 15.882812 20.839844 C 15.882812 20.765625 15.882812 20.691406 15.878906 20.617188 " fill-opacity="1" fill-rule="nonzero"/></g><path fill="#fa0b0b" d="M 23.039062 20.148438 L 21.875 20.148438 C 21.707031 20.148438 21.554688 20.054688 21.480469 19.902344 L 21.363281 19.671875 C 21.242188 19.433594 21.382812 19.144531 21.644531 19.089844 L 22.953125 18.816406 C 23.226562 18.757812 23.488281 18.96875 23.488281 19.253906 L 23.488281 19.699219 C 23.488281 19.949219 23.285156 20.148438 23.039062 20.148438 Z M 25.339844 16.121094 L 25.339844 15.675781 C 25.339844 15.390625 25.082031 15.183594 24.804688 15.238281 L 23.535156 15.503906 L 22.207031 13.511719 C 21.710938 12.765625 20.882812 12.320312 19.988281 12.320312 L 14.03125 12.320312 C 13.136719 12.320312 12.308594 12.765625 11.8125 13.511719 L 10.847656 14.960938 C 10.875 14.96875 10.90625 14.972656 10.933594 14.976562 L 11.160156 14.726562 C 11.226562 14.652344 11.324219 14.609375 11.425781 14.609375 C 11.457031 14.609375 11.488281 14.613281 11.519531 14.621094 C 11.671875 14.664062 11.820312 14.714844 11.964844 14.765625 C 11.976562 14.769531 11.988281 14.777344 12 14.78125 L 12.527344 13.984375 C 12.863281 13.480469 13.425781 13.179688 14.03125 13.179688 L 19.988281 13.179688 C 20.59375 13.179688 21.15625 13.480469 21.492188 13.984375 L 23.417969 16.882812 C 23.597656 17.152344 23.40625 17.511719 23.082031 17.511719 L 15.160156 17.511719 C 15.152344 17.542969 15.140625 17.578125 15.125 17.605469 L 14.953125 17.898438 C 15.039062 18.046875 15.117188 18.199219 15.1875 18.351562 L 15.523438 18.390625 C 15.65625 18.402344 15.773438 18.492188 15.820312 18.621094 C 15.871094 18.765625 15.921875 18.914062 15.964844 19.066406 C 16 19.195312 15.960938 19.335938 15.859375 19.425781 L 15.609375 19.652344 C 15.640625 19.820312 15.667969 19.988281 15.6875 20.15625 L 15.996094 20.292969 C 16.050781 20.316406 16.097656 20.355469 16.132812 20.40625 L 16.148438 20.433594 C 16.183594 20.484375 16.203125 20.542969 16.207031 20.605469 C 16.207031 20.683594 16.210938 20.761719 16.210938 20.839844 C 16.210938 20.914062 16.207031 20.996094 16.207031 21.074219 C 16.203125 21.105469 16.199219 21.132812 16.191406 21.164062 L 20.121094 21.164062 C 20.230469 21.164062 20.320312 21.253906 20.320312 21.363281 C 20.320312 21.476562 20.230469 21.566406 20.121094 21.566406 L 15.679688 21.566406 C 15.664062 21.714844 15.640625 21.863281 15.609375 22.007812 L 20.121094 22.007812 C 20.230469 22.007812 20.320312 22.097656 20.320312 22.210938 C 20.320312 22.320312 20.230469 22.414062 20.121094 22.414062 L 15.960938 22.414062 C 15.980469 22.476562 15.980469 22.546875 15.964844 22.613281 C 15.921875 22.761719 15.871094 22.910156 15.820312 23.058594 C 15.816406 23.066406 15.8125 23.074219 15.808594 23.085938 L 22.410156 23.085938 L 22.410156 24.175781 C 22.410156 24.179688 22.410156 24.179688 22.410156 24.179688 C 22.414062 24.398438 22.59375 24.566406 22.808594 24.566406 L 24.507812 24.566406 C 24.722656 24.566406 24.902344 24.398438 24.90625 24.179688 C 24.90625 24.179688 24.90625 24.179688 24.90625 24.175781 L 24.90625 18.832031 C 24.90625 18.03125 24.675781 17.246094 24.242188 16.570312 L 24.890625 16.570312 C 25.136719 16.570312 25.339844 16.371094 25.339844 16.121094 " fill-opacity="1" fill-rule="nonzero"/><path fill="#fa0b0b" d="M 9.480469 19.597656 L 9.835938 19.851562 L 10.019531 19.597656 C 10.113281 19.464844 10.082031 19.285156 9.949219 19.191406 C 9.820312 19.097656 9.640625 19.128906 9.546875 19.261719 L 9.359375 19.527344 C 9.402344 19.542969 9.441406 19.570312 9.480469 19.597656 Z M 9.097656 22.246094 C 9.09375 22.25 9.085938 22.253906 9.078125 22.257812 C 9.074219 22.261719 9.066406 22.265625 9.058594 22.273438 C 9.046875 22.277344 9.039062 22.285156 9.03125 22.292969 C 9.019531 22.300781 9.011719 22.308594 9 22.320312 C 8.996094 22.324219 8.992188 22.328125 8.984375 22.335938 C 8.980469 22.339844 8.976562 22.347656 8.972656 22.351562 C 8.96875 22.355469 8.964844 22.359375 8.964844 22.359375 C 8.960938 22.363281 8.957031 22.367188 8.957031 22.371094 C 8.949219 22.378906 8.945312 22.382812 8.941406 22.390625 C 8.921875 22.417969 8.902344 22.453125 8.886719 22.488281 C 8.867188 22.523438 8.851562 22.558594 8.835938 22.601562 C 8.832031 22.621094 8.824219 22.640625 8.816406 22.664062 C 8.8125 22.683594 8.804688 22.707031 8.800781 22.730469 C 8.789062 22.773438 8.777344 22.820312 8.765625 22.867188 C 8.753906 22.914062 8.742188 22.960938 8.726562 23.003906 C 8.71875 23.027344 8.710938 23.050781 8.699219 23.070312 C 8.691406 23.09375 8.683594 23.117188 8.671875 23.136719 C 8.667969 23.148438 8.660156 23.15625 8.65625 23.167969 L 8.652344 23.175781 L 8.644531 23.183594 C 8.644531 23.1875 8.640625 23.191406 8.636719 23.195312 C 8.632812 23.207031 8.625 23.214844 8.617188 23.222656 C 8.613281 23.234375 8.605469 23.242188 8.597656 23.25 C 8.574219 23.285156 8.542969 23.3125 8.515625 23.335938 C 8.488281 23.359375 8.460938 23.382812 8.4375 23.398438 C 8.414062 23.414062 8.390625 23.425781 8.371094 23.433594 C 8.359375 23.441406 8.351562 23.445312 8.34375 23.445312 C 8.335938 23.449219 8.332031 23.453125 8.324219 23.453125 C 8.316406 23.457031 8.308594 23.460938 8.308594 23.460938 C 8.308594 23.460938 8.3125 23.457031 8.324219 23.449219 C 8.332031 23.445312 8.34375 23.433594 8.363281 23.421875 C 8.378906 23.410156 8.398438 23.390625 8.417969 23.371094 C 8.4375 23.351562 8.460938 23.328125 8.484375 23.304688 C 8.503906 23.277344 8.527344 23.246094 8.546875 23.214844 C 8.554688 23.207031 8.558594 23.195312 8.5625 23.1875 C 8.570312 23.179688 8.574219 23.171875 8.578125 23.160156 C 8.582031 23.15625 8.582031 23.152344 8.585938 23.148438 L 8.59375 23.132812 C 8.597656 23.125 8.601562 23.113281 8.605469 23.105469 C 8.613281 23.085938 8.621094 23.066406 8.628906 23.042969 C 8.636719 23.023438 8.644531 23.003906 8.648438 22.980469 C 8.664062 22.9375 8.675781 22.890625 8.6875 22.84375 C 8.699219 22.800781 8.710938 22.753906 8.722656 22.707031 C 8.730469 22.683594 8.738281 22.660156 8.746094 22.640625 C 8.75 22.617188 8.761719 22.59375 8.769531 22.574219 C 8.785156 22.53125 8.808594 22.492188 8.832031 22.457031 C 8.855469 22.417969 8.878906 22.386719 8.902344 22.359375 C 8.929688 22.335938 8.957031 22.3125 8.980469 22.292969 C 8.988281 22.289062 8.992188 22.285156 9 22.285156 C 9.003906 22.28125 9.011719 22.277344 9.015625 22.273438 C 9.027344 22.265625 9.039062 22.261719 9.050781 22.257812 C 9.058594 22.253906 9.070312 22.25 9.078125 22.25 C 9.085938 22.246094 9.089844 22.246094 9.097656 22.242188 C 9.105469 22.242188 9.113281 22.238281 9.113281 22.238281 C 9.113281 22.238281 9.109375 22.242188 9.097656 22.246094 Z M 10.699219 21.628906 C 10.585938 21.546875 10.542969 21.394531 10.59375 21.269531 C 10.472656 21.347656 10.308594 21.347656 10.183594 21.261719 C 10.039062 21.15625 9.992188 20.964844 10.066406 20.808594 C 10.082031 20.773438 10.070312 20.738281 10.042969 20.714844 C 10.035156 20.71875 10.027344 20.722656 10.015625 20.726562 C 9.851562 20.773438 9.671875 20.730469 9.484375 20.597656 C 9.472656 20.585938 9.457031 20.578125 9.445312 20.566406 C 9.417969 20.546875 9.390625 20.527344 9.367188 20.507812 C 9.148438 20.351562 9.089844 20.378906 9.089844 20.378906 C 9.078125 20.386719 9.078125 20.4375 9.085938 20.476562 C 9.101562 20.511719 9.179688 20.6875 9.238281 20.90625 C 9.253906 20.957031 9.265625 21.003906 9.273438 21.050781 C 9.332031 21.359375 9.261719 21.550781 9.167969 21.667969 C 9.167969 21.648438 9.171875 21.632812 9.183594 21.613281 C 9.363281 21.257812 9.015625 20.5 9.015625 20.5 C 9.015625 20.5 8.894531 20.046875 9.488281 20.507812 C 10.085938 20.96875 10.339844 20.300781 10.339844 20.300781 L 9.4375 19.65625 C 9.195312 19.484375 8.871094 19.5 8.644531 19.695312 C 8.472656 19.84375 8.296875 20.007812 8.148438 20.183594 C 8.050781 20.296875 8 20.445312 8.011719 20.59375 C 8.023438 20.820312 8.054688 21.179688 8.121094 21.5 C 8.125 21.519531 8.132812 21.546875 8.140625 21.578125 C 8.144531 21.597656 8.152344 21.621094 8.15625 21.644531 C 8.160156 21.65625 8.164062 21.667969 8.167969 21.679688 C 8.171875 21.691406 8.175781 21.703125 8.179688 21.714844 C 8.183594 21.722656 8.183594 21.730469 8.1875 21.734375 C 8.1875 21.742188 8.191406 21.75 8.195312 21.753906 C 8.199219 21.765625 8.203125 21.78125 8.207031 21.792969 C 8.21875 21.820312 8.226562 21.84375 8.238281 21.871094 C 8.242188 21.882812 8.25 21.898438 8.253906 21.910156 C 8.261719 21.921875 8.265625 21.9375 8.273438 21.949219 C 8.277344 21.960938 8.285156 21.972656 8.289062 21.984375 C 8.292969 21.992188 8.296875 22 8.296875 22.003906 C 8.300781 22.011719 8.304688 22.015625 8.308594 22.023438 C 8.3125 22.035156 8.320312 22.042969 8.324219 22.054688 C 8.328125 22.0625 8.332031 22.066406 8.335938 22.074219 C 8.339844 22.078125 8.339844 22.082031 8.34375 22.089844 C 8.351562 22.097656 8.355469 22.109375 8.363281 22.117188 C 8.367188 22.128906 8.375 22.136719 8.378906 22.148438 C 8.390625 22.164062 8.402344 22.179688 8.414062 22.195312 C 8.417969 22.203125 8.421875 22.207031 8.429688 22.214844 C 8.433594 22.21875 8.4375 22.226562 8.441406 22.230469 C 8.457031 22.25 8.464844 22.261719 8.464844 22.261719 C 8.464844 22.261719 8.457031 22.25 8.4375 22.234375 C 8.433594 22.230469 8.429688 22.222656 8.421875 22.21875 C 8.417969 22.214844 8.410156 22.207031 8.40625 22.199219 C 8.394531 22.1875 8.382812 22.171875 8.367188 22.15625 C 8.359375 22.148438 8.351562 22.140625 8.34375 22.132812 C 8.339844 22.121094 8.332031 22.113281 8.324219 22.101562 C 8.320312 22.097656 8.316406 22.09375 8.3125 22.085938 C 8.308594 22.082031 8.304688 22.078125 8.300781 22.070312 C 8.292969 22.0625 8.285156 22.050781 8.277344 22.039062 C 8.273438 22.035156 8.269531 22.027344 8.265625 22.023438 C 8.261719 22.015625 8.257812 22.011719 8.253906 22.003906 C 8.246094 21.992188 8.242188 21.980469 8.234375 21.96875 C 8.226562 21.957031 8.21875 21.945312 8.210938 21.933594 C 8.203125 21.921875 8.195312 21.90625 8.1875 21.894531 C 8.179688 21.878906 8.167969 21.859375 8.160156 21.84375 L 8.15625 21.847656 C 7.769531 22.316406 7.242188 22.53125 6.695312 22.738281 C 6.371094 22.863281 6.082031 23.070312 5.878906 23.351562 C 5.652344 23.660156 5.519531 24.058594 5.523438 24.441406 C 5.523438 24.445312 5.523438 24.449219 5.523438 24.449219 C 5.523438 24.449219 5.523438 24.445312 5.523438 24.441406 C 5.539062 24.40625 5.863281 23.566406 6.828125 23.230469 C 6.84375 23.226562 6.859375 23.222656 6.875 23.21875 C 6.925781 23.203125 6.984375 23.183594 7.039062 23.167969 C 7.175781 23.136719 7.316406 23.117188 7.4375 23.175781 C 7.613281 23.257812 7.582031 23.5 7.527344 23.648438 C 7.265625 24.351562 6.214844 23.6875 5.585938 25.046875 C 4.988281 26.328125 5.878906 26.863281 4.890625 27.496094 C 4.832031 27.535156 4.769531 27.566406 4.703125 27.589844 C 4.65625 27.605469 4.609375 27.617188 4.554688 27.621094 C 4.554688 27.621094 4.671875 27.628906 4.835938 27.582031 C 4.835938 27.582031 4.839844 27.582031 4.839844 27.582031 C 4.855469 27.578125 4.871094 27.574219 4.886719 27.566406 C 4.992188 27.53125 5.113281 27.472656 5.238281 27.382812 C 5.238281 27.378906 5.238281 27.378906 5.238281 27.378906 C 5.242188 27.378906 5.242188 27.378906 5.242188 27.378906 C 5.484375 27.195312 5.726562 26.875 5.785156 26.316406 C 5.820312 25.996094 5.902344 25.550781 6.203125 25.347656 C 6.417969 25.203125 6.804688 25.195312 6.902344 25.449219 C 7.023438 25.777344 6.558594 26.367188 6.195312 26.429688 L 6.109375 26.433594 C 6.109375 26.433594 6.625 26.628906 7.0625 26.199219 C 7.179688 26.089844 7.285156 25.960938 7.371094 25.832031 C 7.5 25.644531 7.597656 25.441406 7.6875 25.238281 C 7.765625 25.054688 7.804688 24.761719 7.992188 24.65625 C 8.28125 24.492188 8.339844 24.878906 8.34375 25.070312 C 8.351562 25.582031 7.972656 25.96875 7.714844 26.175781 C 7.609375 26.257812 7.484375 26.316406 7.347656 26.335938 C 7.347656 26.335938 7.347656 26.335938 7.34375 26.335938 C 7.34375 26.335938 7.6875 26.367188 8.046875 26.082031 C 8.078125 26.058594 8.109375 26.035156 8.140625 26.011719 C 8.261719 25.910156 8.371094 25.789062 8.464844 25.65625 C 8.476562 25.640625 8.484375 25.625 8.496094 25.609375 C 8.496094 25.609375 8.496094 25.605469 8.496094 25.605469 C 8.59375 25.453125 8.671875 25.285156 8.726562 25.113281 C 8.804688 24.863281 8.839844 24.601562 8.847656 24.347656 C 8.847656 24.347656 8.847656 24.34375 8.851562 24.34375 C 8.875 23.707031 9.421875 22.824219 10.070312 22.671875 C 10.246094 22.628906 10.40625 22.523438 10.511719 22.371094 L 11.03125 21.640625 C 10.933594 21.699219 10.800781 21.699219 10.699219 21.628906 Z M 7.195312 19.140625 C 7.207031 19.144531 7.226562 19.148438 7.25 19.152344 C 7.261719 19.152344 7.277344 19.15625 7.292969 19.15625 C 7.308594 19.160156 7.324219 19.160156 7.339844 19.160156 C 7.359375 19.164062 7.375 19.160156 7.394531 19.160156 C 7.414062 19.160156 7.4375 19.160156 7.457031 19.160156 C 7.5 19.15625 7.542969 19.148438 7.59375 19.136719 C 7.617188 19.132812 7.640625 19.125 7.664062 19.117188 C 7.6875 19.105469 7.710938 19.101562 7.734375 19.089844 C 7.785156 19.070312 7.832031 19.039062 7.878906 19.011719 C 7.890625 19.003906 7.902344 18.996094 7.914062 18.988281 L 7.929688 18.976562 L 7.945312 18.960938 L 8.007812 18.90625 C 8.027344 18.886719 8.042969 18.863281 8.0625 18.84375 C 8.082031 18.820312 8.097656 18.796875 8.113281 18.777344 C 8.144531 18.730469 8.171875 18.683594 8.191406 18.632812 C 8.210938 18.585938 8.230469 18.539062 8.238281 18.488281 C 8.25 18.441406 8.257812 18.398438 8.261719 18.355469 C 8.261719 18.34375 8.261719 18.335938 8.265625 18.324219 C 8.265625 18.3125 8.265625 18.304688 8.265625 18.292969 C 8.265625 18.273438 8.265625 18.257812 8.265625 18.238281 C 8.265625 18.222656 8.261719 18.207031 8.261719 18.191406 C 8.257812 18.175781 8.257812 18.160156 8.253906 18.148438 C 8.253906 18.125 8.25 18.105469 8.246094 18.089844 C 8.242188 18.078125 8.242188 18.070312 8.242188 18.070312 C 8.242188 18.070312 8.242188 18.078125 8.246094 18.089844 C 8.253906 18.105469 8.257812 18.121094 8.265625 18.148438 C 8.265625 18.160156 8.269531 18.171875 8.273438 18.1875 C 8.273438 18.203125 8.277344 18.21875 8.28125 18.238281 C 8.28125 18.253906 8.285156 18.273438 8.285156 18.292969 C 8.285156 18.304688 8.285156 18.3125 8.289062 18.324219 C 8.289062 18.335938 8.289062 18.34375 8.285156 18.355469 C 8.289062 18.378906 8.285156 18.402344 8.285156 18.425781 C 8.28125 18.449219 8.277344 18.472656 8.273438 18.496094 C 8.261719 18.546875 8.25 18.597656 8.226562 18.648438 C 8.207031 18.699219 8.179688 18.75 8.148438 18.800781 C 8.132812 18.824219 8.117188 18.847656 8.097656 18.871094 C 8.078125 18.894531 8.058594 18.917969 8.039062 18.9375 L 8.007812 18.96875 L 7.972656 18.996094 L 7.957031 19.007812 L 7.9375 19.023438 C 7.925781 19.03125 7.914062 19.039062 7.902344 19.046875 C 7.878906 19.0625 7.855469 19.078125 7.828125 19.089844 C 7.816406 19.097656 7.800781 19.101562 7.789062 19.109375 C 7.777344 19.113281 7.765625 19.121094 7.75 19.125 C 7.726562 19.136719 7.699219 19.144531 7.675781 19.152344 C 7.648438 19.160156 7.625 19.164062 7.597656 19.167969 C 7.550781 19.179688 7.503906 19.183594 7.457031 19.183594 C 7.4375 19.183594 7.414062 19.183594 7.394531 19.183594 C 7.375 19.179688 7.355469 19.179688 7.339844 19.175781 C 7.320312 19.175781 7.304688 19.171875 7.289062 19.167969 C 7.273438 19.167969 7.261719 19.164062 7.25 19.160156 C 7.238281 19.160156 7.226562 19.15625 7.214844 19.152344 C 7.207031 19.148438 7.199219 19.148438 7.191406 19.144531 C 7.179688 19.140625 7.171875 19.136719 7.171875 19.136719 C 7.171875 19.136719 7.179688 19.140625 7.195312 19.140625 Z M 7.332031 19.265625 C 7.652344 19.277344 7.957031 19.386719 8.203125 19.585938 L 8.441406 19.78125 C 8.492188 19.734375 8.542969 19.6875 8.597656 19.640625 C 8.613281 19.628906 8.625 19.617188 8.640625 19.605469 L 8.519531 19.507812 C 8.421875 19.429688 8.410156 19.289062 8.484375 19.195312 C 8.5625 19.101562 8.703125 19.085938 8.796875 19.164062 L 9.183594 19.476562 C 9.21875 19.484375 9.253906 19.492188 9.289062 19.503906 C 9.292969 19.496094 9.296875 19.492188 9.300781 19.484375 L 9.410156 19.328125 L 8.746094 18.789062 C 8.53125 18.613281 8.382812 18.371094 8.328125 18.097656 C 8.304688 17.984375 8.261719 17.871094 8.195312 17.765625 C 8.046875 17.519531 7.804688 17.367188 7.542969 17.320312 C 7.492188 17.308594 7.457031 17.363281 7.484375 17.40625 L 7.675781 17.710938 C 7.839844 17.976562 7.769531 18.328125 7.507812 18.496094 C 7.242188 18.671875 6.886719 18.589844 6.71875 18.324219 L 6.519531 18.007812 C 6.496094 17.964844 6.429688 17.976562 6.417969 18.023438 C 6.347656 18.273438 6.378906 18.550781 6.523438 18.789062 C 6.699219 19.085938 7.011719 19.253906 7.332031 19.265625 Z M 12.8125 21.714844 C 12.796875 21.710938 12.777344 21.707031 12.753906 21.703125 C 12.742188 21.703125 12.726562 21.699219 12.714844 21.699219 C 12.699219 21.695312 12.683594 21.695312 12.664062 21.695312 C 12.648438 21.695312 12.628906 21.695312 12.609375 21.695312 C 12.589844 21.695312 12.570312 21.695312 12.546875 21.699219 C 12.507812 21.699219 12.460938 21.707031 12.414062 21.71875 C 12.390625 21.726562 12.367188 21.730469 12.339844 21.738281 C 12.316406 21.75 12.292969 21.753906 12.269531 21.765625 C 12.21875 21.785156 12.171875 21.816406 12.125 21.84375 C 12.117188 21.851562 12.105469 21.859375 12.09375 21.867188 L 12.078125 21.882812 L 12.058594 21.894531 L 12.027344 21.921875 L 12 21.953125 C 11.976562 21.96875 11.960938 21.992188 11.941406 22.011719 C 11.925781 22.035156 11.90625 22.058594 11.890625 22.082031 C 11.863281 22.125 11.835938 22.171875 11.8125 22.222656 C 11.792969 22.269531 11.777344 22.320312 11.765625 22.367188 C 11.753906 22.414062 11.746094 22.457031 11.742188 22.5 C 11.742188 22.511719 11.742188 22.523438 11.742188 22.53125 C 11.742188 22.542969 11.742188 22.550781 11.742188 22.5625 C 11.738281 22.582031 11.742188 22.601562 11.742188 22.617188 C 11.742188 22.636719 11.742188 22.652344 11.746094 22.664062 C 11.746094 22.679688 11.746094 22.695312 11.75 22.707031 C 11.753906 22.730469 11.757812 22.75 11.757812 22.765625 C 11.761719 22.777344 11.761719 22.785156 11.761719 22.785156 C 11.761719 22.785156 11.761719 22.777344 11.757812 22.765625 C 11.753906 22.753906 11.746094 22.734375 11.742188 22.707031 C 11.738281 22.695312 11.734375 22.683594 11.734375 22.667969 C 11.730469 22.652344 11.726562 22.636719 11.726562 22.617188 C 11.722656 22.601562 11.71875 22.582031 11.71875 22.5625 C 11.71875 22.550781 11.71875 22.542969 11.71875 22.53125 C 11.71875 22.519531 11.71875 22.511719 11.71875 22.5 C 11.71875 22.476562 11.71875 22.453125 11.722656 22.429688 C 11.726562 22.40625 11.726562 22.382812 11.734375 22.359375 C 11.742188 22.308594 11.757812 22.257812 11.777344 22.207031 C 11.796875 22.15625 11.824219 22.105469 11.855469 22.054688 C 11.871094 22.03125 11.890625 22.007812 11.90625 21.984375 C 11.925781 21.964844 11.945312 21.941406 11.96875 21.917969 L 12 21.890625 L 12.03125 21.859375 L 12.050781 21.847656 L 12.066406 21.835938 C 12.078125 21.824219 12.089844 21.816406 12.101562 21.808594 C 12.128906 21.792969 12.152344 21.777344 12.175781 21.765625 C 12.191406 21.757812 12.203125 21.753906 12.214844 21.746094 C 12.226562 21.742188 12.242188 21.738281 12.253906 21.730469 C 12.28125 21.71875 12.304688 21.714844 12.332031 21.703125 C 12.355469 21.699219 12.382812 21.691406 12.40625 21.6875 C 12.457031 21.675781 12.503906 21.671875 12.546875 21.671875 C 12.570312 21.671875 12.589844 21.671875 12.609375 21.671875 C 12.628906 21.675781 12.648438 21.675781 12.664062 21.679688 C 12.683594 21.679688 12.699219 21.683594 12.714844 21.6875 C 12.730469 21.6875 12.742188 21.691406 12.757812 21.695312 C 12.769531 21.699219 12.78125 21.699219 12.789062 21.703125 C 12.796875 21.707031 12.804688 21.710938 12.8125 21.710938 C 12.824219 21.714844 12.832031 21.71875 12.832031 21.71875 C 12.832031 21.71875 12.824219 21.714844 12.8125 21.714844 Z M 13.484375 22.066406 C 13.304688 21.769531 12.996094 21.601562 12.671875 21.589844 C 12.355469 21.578125 12.046875 21.472656 11.800781 21.269531 L 11.5 21.023438 L 11.347656 21.234375 L 11.488281 21.347656 C 11.582031 21.425781 11.597656 21.566406 11.519531 21.660156 C 11.441406 21.753906 11.304688 21.769531 11.207031 21.691406 L 11.128906 21.628906 L 10.976562 21.839844 L 11.257812 22.066406 C 11.472656 22.242188 11.625 22.484375 11.675781 22.757812 C 11.699219 22.875 11.742188 22.984375 11.808594 23.089844 C 11.960938 23.335938 12.203125 23.488281 12.464844 23.535156 C 12.511719 23.546875 12.546875 23.492188 12.519531 23.449219 L 12.328125 23.144531 C 12.164062 22.878906 12.234375 22.527344 12.496094 22.359375 C 12.765625 22.183594 13.121094 22.265625 13.289062 22.535156 L 13.484375 22.847656 C 13.511719 22.890625 13.574219 22.882812 13.585938 22.832031 C 13.65625 22.582031 13.628906 22.304688 13.484375 22.066406 Z M 10.691406 21.246094 C 10.617188 21.351562 10.640625 21.492188 10.746094 21.566406 C 10.847656 21.640625 10.992188 21.617188 11.0625 21.511719 L 11.566406 20.808594 C 11.640625 20.703125 11.617188 20.5625 11.511719 20.488281 C 11.410156 20.414062 11.265625 20.4375 11.191406 20.542969 Z M 10.402344 20.253906 L 10.65625 19.898438 C 10.75 19.765625 10.71875 19.585938 10.589844 19.492188 C 10.460938 19.398438 10.277344 19.429688 10.1875 19.5625 L 9.933594 19.917969 Z M 10.679688 20.066406 L 10.160156 20.792969 C 10.066406 20.925781 10.097656 21.105469 10.226562 21.199219 C 10.359375 21.292969 10.539062 21.261719 10.632812 21.128906 L 11.148438 20.402344 C 11.242188 20.269531 11.210938 20.089844 11.082031 19.996094 C 10.953125 19.90625 10.773438 19.933594 10.679688 20.066406 " fill-opacity="1" fill-rule="nonzero"/><g clip-path="url(#a8472d3e09)"><path fill="#fa0b0b" d="M 17.382812 28.632812 C 24.394531 28.632812 30.097656 22.929688 30.097656 15.917969 C 30.097656 8.910156 24.394531 3.207031 17.382812 3.207031 L 17.382812 0.00390625 C 17.574219 0.00390625 17.769531 0.0078125 17.960938 0.015625 C 17.984375 0.03125 18.003906 0.0429688 18.027344 0.0585938 L 18.566406 1.269531 C 18.589844 1.285156 18.605469 1.296875 18.628906 1.3125 C 19.339844 1.371094 20.035156 1.484375 20.714844 1.640625 C 20.742188 1.632812 20.761719 1.625 20.789062 1.617188 L 21.675781 0.632812 C 21.695312 0.613281 21.722656 0.601562 21.75 0.609375 C 22.121094 0.71875 22.488281 0.835938 22.84375 0.964844 C 22.871094 0.976562 22.890625 1 22.894531 1.03125 L 23.035156 2.347656 C 23.035156 2.375 23.054688 2.398438 23.078125 2.40625 C 23.730469 2.683594 24.363281 3.003906 24.960938 3.367188 C 24.984375 3.382812 25.015625 3.382812 25.039062 3.371094 L 26.1875 2.710938 C 26.210938 2.695312 26.242188 2.695312 26.265625 2.710938 C 26.585938 2.925781 26.894531 3.152344 27.199219 3.390625 C 27.222656 3.410156 27.230469 3.4375 27.226562 3.464844 L 26.949219 4.761719 C 26.960938 4.789062 26.964844 4.808594 26.972656 4.832031 C 27.507812 5.296875 28.007812 5.792969 28.46875 6.328125 C 28.492188 6.335938 28.515625 6.34375 28.539062 6.351562 L 29.835938 6.074219 C 29.863281 6.085938 29.882812 6.09375 29.910156 6.101562 C 30.148438 6.40625 30.375 6.714844 30.589844 7.035156 C 30.589844 7.0625 30.589844 7.085938 30.589844 7.117188 L 29.933594 8.261719 C 29.917969 8.285156 29.917969 8.316406 29.933594 8.339844 C 30.296875 8.941406 30.617188 9.570312 30.894531 10.222656 C 30.914062 10.238281 30.933594 10.25 30.953125 10.269531 L 32.269531 10.40625 C 32.300781 10.410156 32.324219 10.429688 32.335938 10.457031 C 32.464844 10.816406 32.585938 11.179688 32.691406 11.550781 C 32.699219 11.578125 32.6875 11.609375 32.667969 11.628906 L 31.683594 12.511719 C 31.675781 12.539062 31.667969 12.558594 31.660156 12.585938 C 31.820312 13.265625 31.929688 13.960938 31.988281 14.671875 C 32.003906 14.695312 32.015625 14.710938 32.03125 14.734375 L 33.242188 15.273438 C 33.257812 15.300781 33.269531 15.316406 33.285156 15.339844 C 33.292969 15.53125 33.296875 15.726562 33.296875 15.917969 C 33.296875 16.113281 33.292969 16.304688 33.285156 16.496094 C 33.269531 16.519531 33.257812 16.539062 33.242188 16.5625 L 32.03125 17.101562 C 32.015625 17.125 32.003906 17.140625 31.988281 17.164062 C 31.929688 17.875 31.820312 18.574219 31.660156 19.25 C 31.667969 19.277344 31.675781 19.296875 31.683594 19.324219 L 32.667969 20.210938 C 32.6875 20.230469 32.699219 20.257812 32.691406 20.289062 C 32.585938 20.65625 32.464844 21.023438 32.335938 21.382812 C 32.3125 21.398438 32.292969 21.414062 32.269531 21.429688 L 30.953125 21.570312 C 30.933594 21.585938 30.914062 21.597656 30.894531 21.613281 C 30.617188 22.269531 30.296875 22.898438 29.933594 23.5 C 29.917969 23.523438 29.917969 23.550781 29.933594 23.574219 L 30.589844 24.722656 C 30.605469 24.746094 30.605469 24.777344 30.589844 24.800781 C 30.375 25.121094 30.148438 25.433594 29.910156 25.734375 C 29.890625 25.757812 29.863281 25.765625 29.835938 25.761719 L 28.539062 25.484375 C 28.515625 25.496094 28.492188 25.5 28.46875 25.511719 C 28.007812 26.042969 27.507812 26.542969 26.976562 27.003906 C 26.964844 27.03125 26.960938 27.050781 26.949219 27.074219 L 27.226562 28.371094 C 27.230469 28.398438 27.222656 28.429688 27.199219 28.445312 C 26.894531 28.683594 26.585938 28.910156 26.265625 29.125 C 26.242188 29.140625 26.210938 29.140625 26.1875 29.128906 L 25.039062 28.46875 C 25.015625 28.453125 24.984375 28.453125 24.960938 28.46875 C 24.363281 28.832031 23.730469 29.152344 23.078125 29.429688 C 23.054688 29.441406 23.035156 29.464844 23.035156 29.488281 L 22.894531 30.808594 C 22.890625 30.835938 22.871094 30.859375 22.84375 30.871094 C 22.488281 31 22.121094 31.121094 21.75 31.226562 C 21.722656 31.234375 21.695312 31.226562 21.675781 31.203125 L 20.789062 30.21875 C 20.761719 30.210938 20.742188 30.203125 20.714844 30.195312 C 20.035156 30.355469 19.339844 30.464844 18.628906 30.523438 C 18.605469 30.539062 18.589844 30.554688 18.566406 30.570312 L 18.027344 31.777344 C 18.003906 31.792969 17.984375 31.804688 17.960938 31.824219 C 17.769531 31.828125 17.574219 31.832031 17.382812 31.832031 L 17.382812 28.632812 " fill-opacity="1" fill-rule="nonzero"/></g><g fill="#000000" fill-opacity="1"><g transform="translate(3.164414, 35.398756)"><g><path d="M 2.703125 0 L 2.125 0 L 1.90625 -0.65625 L 0.828125 -0.65625 L 0.609375 0 L 0.046875 0 L 1.015625 -2.828125 L 1.734375 -2.828125 Z M 1.34375 -2.234375 L 0.984375 -1.125 L 1.75 -1.125 L 1.390625 -2.234375 Z M 1.34375 -2.234375 "/></g></g><g transform="translate(5.910994, 35.398756)"><g><path d="M 1.5 0.046875 C 1.101562 0.046875 0.8125 -0.046875 0.625 -0.234375 C 0.4375 -0.421875 0.34375 -0.695312 0.34375 -1.0625 L 0.34375 -2.828125 L 0.890625 -2.828125 L 0.890625 -1.0625 C 0.890625 -0.851562 0.9375 -0.695312 1.03125 -0.59375 C 1.132812 -0.488281 1.289062 -0.4375 1.5 -0.4375 C 1.894531 -0.4375 2.09375 -0.644531 2.09375 -1.0625 L 2.09375 -2.828125 L 2.640625 -2.828125 L 2.640625 -1.0625 C 2.640625 -0.695312 2.546875 -0.421875 2.359375 -0.234375 C 2.171875 -0.046875 1.882812 0.046875 1.5 0.046875 Z M 1.5 0.046875 "/></g></g><g transform="translate(8.898503, 35.398756)"><g><path d="M 2.265625 -2.828125 L 2.265625 -2.359375 L 1.453125 -2.359375 L 1.453125 0 L 0.890625 0 L 0.890625 -2.359375 L 0.078125 -2.359375 L 0.078125 -2.828125 Z M 2.265625 -2.828125 "/></g></g><g transform="translate(11.234542, 35.398756)"><g><path d="M 1.53125 0.046875 C 1.28125 0.046875 1.054688 -0.00390625 0.859375 -0.109375 C 0.660156 -0.222656 0.503906 -0.382812 0.390625 -0.59375 C 0.273438 -0.8125 0.21875 -1.082031 0.21875 -1.40625 C 0.21875 -1.726562 0.273438 -2 0.390625 -2.21875 C 0.503906 -2.4375 0.660156 -2.597656 0.859375 -2.703125 C 1.054688 -2.804688 1.28125 -2.859375 1.53125 -2.859375 C 1.789062 -2.859375 2.019531 -2.804688 2.21875 -2.703125 C 2.414062 -2.597656 2.566406 -2.4375 2.671875 -2.21875 C 2.785156 -2 2.84375 -1.726562 2.84375 -1.40625 C 2.84375 -1.082031 2.785156 -0.8125 2.671875 -0.59375 C 2.566406 -0.382812 2.414062 -0.222656 2.21875 -0.109375 C 2.019531 -0.00390625 1.789062 0.046875 1.53125 0.046875 Z M 1.53125 -0.4375 C 1.769531 -0.4375 1.953125 -0.515625 2.078125 -0.671875 C 2.210938 -0.828125 2.28125 -1.070312 2.28125 -1.40625 C 2.28125 -1.75 2.210938 -1.992188 2.078125 -2.140625 C 1.953125 -2.296875 1.769531 -2.375 1.53125 -2.375 C 1.289062 -2.375 1.109375 -2.296875 0.984375 -2.140625 C 0.859375 -1.992188 0.796875 -1.75 0.796875 -1.40625 C 0.796875 -1.070312 0.859375 -0.828125 0.984375 -0.671875 C 1.109375 -0.515625 1.289062 -0.4375 1.53125 -0.4375 Z M 1.53125 -0.4375 "/></g></g><g transform="translate(14.304929, 35.398756)"><g><path d="M 1.546875 0.046875 C 1.285156 0.046875 1.054688 -0.00390625 0.859375 -0.109375 C 0.660156 -0.222656 0.503906 -0.390625 0.390625 -0.609375 C 0.273438 -0.828125 0.21875 -1.09375 0.21875 -1.40625 C 0.21875 -1.726562 0.273438 -1.992188 0.390625 -2.203125 C 0.503906 -2.421875 0.660156 -2.582031 0.859375 -2.6875 C 1.054688 -2.800781 1.285156 -2.859375 1.546875 -2.859375 C 1.816406 -2.859375 2.046875 -2.804688 2.234375 -2.703125 C 2.421875 -2.597656 2.554688 -2.4375 2.640625 -2.21875 L 2.234375 -1.96875 L 2.1875 -1.96875 C 2.125 -2.113281 2.039062 -2.21875 1.9375 -2.28125 C 1.832031 -2.34375 1.703125 -2.375 1.546875 -2.375 C 1.304688 -2.375 1.117188 -2.296875 0.984375 -2.140625 C 0.859375 -1.992188 0.796875 -1.75 0.796875 -1.40625 C 0.796875 -1.070312 0.859375 -0.828125 0.984375 -0.671875 C 1.117188 -0.515625 1.304688 -0.4375 1.546875 -0.4375 C 1.910156 -0.4375 2.132812 -0.617188 2.21875 -0.984375 L 2.265625 -0.984375 L 2.671875 -0.765625 C 2.597656 -0.492188 2.46875 -0.289062 2.28125 -0.15625 C 2.09375 -0.0195312 1.847656 0.046875 1.546875 0.046875 Z M 1.546875 0.046875 "/></g></g><g transform="translate(17.068856, 35.398756)"><g><path d="M 1.53125 0.046875 C 1.28125 0.046875 1.054688 -0.00390625 0.859375 -0.109375 C 0.660156 -0.222656 0.503906 -0.382812 0.390625 -0.59375 C 0.273438 -0.8125 0.21875 -1.082031 0.21875 -1.40625 C 0.21875 -1.726562 0.273438 -2 0.390625 -2.21875 C 0.503906 -2.4375 0.660156 -2.597656 0.859375 -2.703125 C 1.054688 -2.804688 1.28125 -2.859375 1.53125 -2.859375 C 1.789062 -2.859375 2.019531 -2.804688 2.21875 -2.703125 C 2.414062 -2.597656 2.566406 -2.4375 2.671875 -2.21875 C 2.785156 -2 2.84375 -1.726562 2.84375 -1.40625 C 2.84375 -1.082031 2.785156 -0.8125 2.671875 -0.59375 C 2.566406 -0.382812 2.414062 -0.222656 2.21875 -0.109375 C 2.019531 -0.00390625 1.789062 0.046875 1.53125 0.046875 Z M 1.53125 -0.4375 C 1.769531 -0.4375 1.953125 -0.515625 2.078125 -0.671875 C 2.210938 -0.828125 2.28125 -1.070312 2.28125 -1.40625 C 2.28125 -1.75 2.210938 -1.992188 2.078125 -2.140625 C 1.953125 -2.296875 1.769531 -2.375 1.53125 -2.375 C 1.289062 -2.375 1.109375 -2.296875 0.984375 -2.140625 C 0.859375 -1.992188 0.796875 -1.75 0.796875 -1.40625 C 0.796875 -1.070312 0.859375 -0.828125 0.984375 -0.671875 C 1.109375 -0.515625 1.289062 -0.4375 1.53125 -0.4375 Z M 1.53125 -0.4375 "/></g></g><g transform="translate(20.139244, 35.398756)"><g><path d="M 0.90625 0 L 0.359375 0 L 0.359375 -2.828125 L 1 -2.828125 L 2.140625 -1 L 2.1875 -1.015625 L 2.1875 -2.828125 L 2.71875 -2.828125 L 2.71875 0 L 2.15625 0 L 0.953125 -1.9375 L 0.90625 -1.9375 Z M 0.90625 0 "/></g></g><g transform="translate(23.228906, 35.398756)"><g><path d="M 0.90625 0 L 0.359375 0 L 0.359375 -2.828125 L 1 -2.828125 L 2.140625 -1 L 2.1875 -1.015625 L 2.1875 -2.828125 L 2.71875 -2.828125 L 2.71875 0 L 2.15625 0 L 0.953125 -1.9375 L 0.90625 -1.9375 Z M 0.90625 0 "/></g></g><g transform="translate(26.318568, 35.398756)"><g><path d="M 0.921875 -1.234375 L 0.921875 -0.46875 L 2.265625 -0.46875 L 2.265625 0 L 0.359375 0 L 0.359375 -2.828125 L 2.234375 -2.828125 L 2.234375 -2.359375 L 0.921875 -2.359375 L 0.921875 -1.6875 L 2.078125 -1.6875 L 2.078125 -1.234375 Z M 0.921875 -1.234375 "/></g></g><g transform="translate(28.741341, 35.398756)"><g><path d="M 1.546875 0.046875 C 1.285156 0.046875 1.054688 -0.00390625 0.859375 -0.109375 C 0.660156 -0.222656 0.503906 -0.390625 0.390625 -0.609375 C 0.273438 -0.828125 0.21875 -1.09375 0.21875 -1.40625 C 0.21875 -1.726562 0.273438 -1.992188 0.390625 -2.203125 C 0.503906 -2.421875 0.660156 -2.582031 0.859375 -2.6875 C 1.054688 -2.800781 1.285156 -2.859375 1.546875 -2.859375 C 1.816406 -2.859375 2.046875 -2.804688 2.234375 -2.703125 C 2.421875 -2.597656 2.554688 -2.4375 2.640625 -2.21875 L 2.234375 -1.96875 L 2.1875 -1.96875 C 2.125 -2.113281 2.039062 -2.21875 1.9375 -2.28125 C 1.832031 -2.34375 1.703125 -2.375 1.546875 -2.375 C 1.304688 -2.375 1.117188 -2.296875 0.984375 -2.140625 C 0.859375 -1.992188 0.796875 -1.75 0.796875 -1.40625 C 0.796875 -1.070312 0.859375 -0.828125 0.984375 -0.671875 C 1.117188 -0.515625 1.304688 -0.4375 1.546875 -0.4375 C 1.910156 -0.4375 2.132812 -0.617188 2.21875 -0.984375 L 2.265625 -0.984375 L 2.671875 -0.765625 C 2.597656 -0.492188 2.46875 -0.289062 2.28125 -0.15625 C 2.09375 -0.0195312 1.847656 0.046875 1.546875 0.046875 Z M 1.546875 0.046875 "/></g></g><g transform="translate(31.505268, 35.398756)"><g><path d="M 2.265625 -2.828125 L 2.265625 -2.359375 L 1.453125 -2.359375 L 1.453125 0 L 0.890625 0 L 0.890625 -2.359375 L 0.078125 -2.359375 L 0.078125 -2.828125 Z M 2.265625 -2.828125 "/></g></g></g></svg>