<svg xmlns="http://www.w3.org/2000/svg" xmlns:xlink="http://www.w3.org/1999/xlink" width="50" zoomAndPan="magnify" viewBox="0 0 37.5 37.499999" height="50" preserveAspectRatio="xMidYMid meet" version="1.0"><defs><clipPath id="9cd0b26a25"><path d="M 0 1 L 37.007812 1 L 37.007812 16 L 0 16 Z M 0 1 " clip-rule="nonzero"/></clipPath><clipPath id="5a1bd5c36f"><path d="M 0 23 L 37 23 L 37 36.429688 L 0 36.429688 Z M 0 23 " clip-rule="nonzero"/></clipPath></defs><g clip-path="url(#9cd0b26a25)"><path fill="#fa0b0b" d="M 33.335938 12.628906 C 33.3125 12.546875 33.261719 12.488281 33.195312 12.441406 C 32.683594 12.773438 32.160156 13.015625 31.625 13.171875 L 31.617188 13.390625 C 31.617188 13.390625 30.683594 13.351562 30.683594 13.351562 C 30.535156 13.367188 30.382812 13.371094 30.230469 13.371094 C 30.203125 13.371094 30.171875 13.371094 30.140625 13.371094 C 29.578125 13.417969 28.726562 13.558594 27.851562 13.945312 C 27.941406 14.105469 28.03125 14.273438 28.117188 14.4375 L 27.515625 14.4375 C 27.480469 14.347656 27.4375 14.257812 27.398438 14.167969 C 27.246094 14.246094 27.101562 14.339844 26.949219 14.4375 L 25.59375 14.4375 C 27.128906 12.953125 29.074219 12.59375 30.117188 12.511719 C 30.15625 12.511719 30.191406 12.511719 30.230469 12.511719 C 30.375 12.511719 30.515625 12.5 30.648438 12.492188 C 30.691406 12.492188 30.714844 12.492188 30.71875 12.492188 L 30.804688 12.496094 L 30.804688 12.472656 C 31.886719 12.316406 32.945312 11.726562 33.957031 10.714844 C 35.996094 8.675781 36.015625 7.332031 36.015625 7.277344 L 36.015625 7.089844 L 31.476562 9.265625 C 31.21875 9.175781 29.945312 8.683594 29.171875 7.308594 C 28.683594 6.445312 28.613281 5.398438 28.964844 4.429688 C 30.066406 3.824219 33.488281 2.21875 33.640625 2.148438 L 33.851562 2.054688 L 33.65625 1.941406 C 33.609375 1.917969 32.566406 1.34375 31.1875 1.121094 C 29.890625 0.910156 28.027344 0.980469 26.519531 2.484375 C 25.40625 3.597656 24.761719 4.925781 24.65625 6.335938 L 24.652344 6.335938 L 24.652344 6.410156 C 24.640625 6.574219 24.636719 6.734375 24.640625 6.886719 C 24.589844 7.761719 24.292969 9.964844 22.636719 11.621094 L 19.824219 14.433594 L 12.96875 14.433594 C 14.3125 12.890625 16.296875 11.914062 18.503906 11.914062 C 19.296875 11.914062 20.0625 12.039062 20.777344 12.269531 L 22.035156 11.011719 C 23.464844 9.582031 23.734375 7.660156 23.785156 6.863281 C 23.78125 6.707031 23.785156 6.546875 23.796875 6.382812 L 23.796875 5.710938 C 22.777344 5.316406 21.714844 5.03125 20.628906 4.871094 L 20.46875 4.847656 L 20.464844 3.453125 C 20.464844 3.351562 20.421875 3.257812 20.351562 3.1875 C 20.28125 3.117188 20.1875 3.074219 20.085938 3.074219 L 16.78125 3.089844 C 16.574219 3.089844 16.402344 3.261719 16.402344 3.46875 L 16.40625 4.863281 L 16.246094 4.886719 C 14.679688 5.128906 13.175781 5.625 11.773438 6.363281 L 11.625 6.4375 L 10.800781 5.308594 C 10.679688 5.144531 10.441406 5.101562 10.273438 5.230469 L 7.605469 7.183594 C 7.4375 7.300781 7.398438 7.539062 7.523438 7.710938 L 8.347656 8.835938 L 8.234375 8.953125 C 7.113281 10.074219 6.179688 11.359375 5.476562 12.777344 L 5.40625 12.925781 L 4.078125 12.496094 C 3.878906 12.429688 3.664062 12.542969 3.605469 12.738281 L 3.066406 14.425781 L 0 14.425781 L 0 15.375 L 37.007812 15.375 L 37.007812 14.425781 L 33.9375 14.425781 Z M 8.898438 14.445312 C 9.628906 12.988281 10.679688 11.726562 11.957031 10.738281 C 10.929688 11.761719 10.089844 13.019531 9.503906 14.445312 Z M 30.308594 9.3125 C 30.308594 9.3125 27.304688 8.796875 28.300781 5.019531 C 28.300781 5.019531 27.96875 8.058594 30.308594 9.3125 Z M 32.664062 2.230469 L 28.703125 4.132812 C 28.699219 4.136719 29.96875 2.828125 32.664062 2.230469 Z M 26.824219 2.824219 C 27.777344 1.871094 28.886719 1.546875 29.875 1.5 C 29.003906 1.625 28.0625 1.988281 27.226562 2.824219 C 26.1875 3.863281 25.578125 5.097656 25.464844 6.386719 C 25.449219 6.53125 25.445312 6.679688 25.445312 6.820312 C 25.445312 8.257812 26.054688 9.382812 26.628906 9.953125 C 27.8125 11.136719 29.023438 11.742188 30.230469 11.746094 C 30.398438 11.746094 30.566406 11.738281 30.726562 11.714844 C 31.742188 11.585938 32.75 11.027344 33.71875 10.050781 C 34.859375 8.914062 35.324219 8.027344 35.515625 7.492188 C 35.421875 7.953125 35.054688 8.988281 33.65625 10.386719 C 32.683594 11.359375 31.660156 11.90625 30.625 12.019531 C 30.457031 12.039062 30.289062 12.042969 30.121094 12.039062 C 28.882812 12.003906 27.625 11.355469 26.386719 10.117188 C 25.789062 9.515625 25.140625 8.355469 25.105469 6.878906 C 25.097656 6.734375 25.105469 6.589844 25.113281 6.4375 C 25.1875 5.113281 25.785156 3.871094 26.824219 2.824219 Z M 21.527344 14.445312 L 23.746094 12.226562 C 24.035156 11.933594 24.539062 11.957031 24.867188 12.285156 C 25.195312 12.613281 25.21875 13.117188 24.925781 13.40625 L 23.886719 14.449219 L 21.527344 14.449219 Z M 21.527344 14.445312 " fill-opacity="1" fill-rule="nonzero"/></g><g clip-path="url(#5a1bd5c36f)"><path fill="#fa0b0b" d="M 0 23.125 L 0 24.078125 L 3.070312 24.078125 L 3.566406 25.582031 C 4.445312 25.023438 5.355469 24.742188 6.285156 24.742188 C 6.472656 24.742188 6.660156 24.75 6.84375 24.777344 C 7.382812 24.65625 8.039062 24.445312 8.6875 24.078125 L 10.160156 24.078125 C 9.0625 25.039062 7.789062 25.460938 6.875 25.648438 C 5.492188 25.429688 4.148438 25.96875 2.867188 27.242188 C 1 29.109375 0.980469 30.339844 0.980469 30.386719 L 0.980469 30.574219 L 5.136719 28.582031 C 5.378906 28.667969 6.53125 29.121094 7.230469 30.363281 C 7.675781 31.148438 7.742188 32.097656 7.421875 32.980469 C 6.410156 33.535156 3.292969 35 3.15625 35.058594 L 3.171875 35.09375 L 3.15625 35.058594 L 2.949219 35.15625 L 3.144531 35.265625 C 3.15625 35.269531 4.125 35.808594 5.398438 36.015625 C 5.695312 36.058594 6.023438 36.09375 6.371094 36.09375 C 7.417969 36.09375 8.636719 35.804688 9.671875 34.765625 C 11.097656 33.34375 11.394531 31.847656 11.390625 30.839844 C 11.539062 29.671875 12.003906 28.007812 13.34375 26.675781 L 15.945312 24.070312 L 24.03125 24.070312 C 22.6875 25.617188 20.707031 26.59375 18.496094 26.59375 C 17.367188 26.59375 16.300781 26.335938 15.34375 25.882812 L 13.949219 27.277344 C 12.804688 28.425781 12.394531 29.871094 12.25 30.902344 C 12.25 31.308594 12.203125 31.78125 12.074219 32.296875 C 13.425781 32.964844 14.871094 33.414062 16.363281 33.632812 L 16.523438 33.660156 L 16.527344 35.054688 C 16.527344 35.15625 16.566406 35.25 16.636719 35.320312 C 16.710938 35.390625 16.804688 35.429688 16.90625 35.429688 L 20.210938 35.417969 C 20.3125 35.417969 20.410156 35.375 20.480469 35.304688 C 20.550781 35.234375 20.589844 35.140625 20.589844 35.039062 L 20.585938 33.644531 L 20.746094 33.621094 C 22.3125 33.378906 23.816406 32.878906 25.21875 32.144531 L 25.367188 32.070312 L 26.191406 33.191406 C 26.25 33.273438 26.335938 33.328125 26.4375 33.34375 C 26.539062 33.359375 26.640625 33.332031 26.71875 33.273438 L 29.386719 31.320312 C 29.554688 31.199219 29.59375 30.960938 29.46875 30.789062 L 28.640625 29.664062 L 28.757812 29.546875 C 29.878906 28.425781 30.8125 27.140625 31.515625 25.722656 L 31.585938 25.578125 L 32.914062 26.003906 C 33.109375 26.070312 33.328125 25.960938 33.386719 25.761719 L 33.925781 24.078125 L 37 24.078125 L 37 23.125 Z M 6.183594 28.476562 C 6.183594 28.476562 9 28.953125 8.066406 32.503906 C 8.066406 32.503906 8.378906 29.648438 6.183594 28.476562 Z M 3.980469 35.113281 L 7.695312 33.328125 C 7.695312 33.328125 6.503906 34.550781 3.980469 35.113281 Z M 11.0625 31.171875 C 10.988281 32.410156 10.429688 33.578125 9.453125 34.554688 C 8.554688 35.453125 7.519531 35.753906 6.59375 35.796875 C 7.410156 35.683594 8.292969 35.339844 9.078125 34.554688 C 10.054688 33.578125 10.628906 32.421875 10.730469 31.214844 C 10.738281 31.078125 10.75 30.9375 10.746094 30.804688 C 10.746094 29.457031 10.171875 28.402344 9.636719 27.867188 C 8.527344 26.753906 7.386719 26.191406 6.253906 26.1875 C 6.101562 26.1875 5.949219 26.195312 5.792969 26.214844 C 4.839844 26.335938 3.894531 26.867188 2.984375 27.777344 C 1.917969 28.84375 1.480469 29.671875 1.296875 30.175781 C 1.390625 29.75 1.738281 28.777344 3.042969 27.464844 C 3.957031 26.554688 4.910156 26.035156 5.882812 25.933594 C 6.039062 25.917969 6.195312 25.910156 6.355469 25.914062 C 7.519531 25.949219 8.695312 26.554688 9.859375 27.722656 C 10.417969 28.28125 11.03125 29.371094 11.066406 30.753906 C 11.074219 30.890625 11.074219 31.03125 11.0625 31.171875 Z M 12.804688 25.527344 C 12.511719 25.820312 12.007812 25.792969 11.679688 25.464844 C 11.355469 25.140625 11.328125 24.636719 11.621094 24.34375 L 11.886719 24.078125 L 14.246094 24.078125 Z M 25.054688 27.78125 C 26.082031 26.757812 26.921875 25.5 27.507812 24.078125 L 28.113281 24.078125 C 27.382812 25.53125 26.332031 26.792969 25.054688 27.78125 Z M 25.054688 27.78125 " fill-opacity="1" fill-rule="nonzero"/></g></svg>