<svg xmlns="http://www.w3.org/2000/svg" xmlns:xlink="http://www.w3.org/1999/xlink" width="140" zoomAndPan="magnify" viewBox="0 0 104.88 30.000001" height="40" preserveAspectRatio="xMidYMid meet" version="1.0"><defs><g/><clipPath id="557287e011"><path d="M 1.632812 1 L 103.128906 1 L 103.128906 28.304688 L 1.632812 28.304688 Z M 1.632812 1 " clip-rule="nonzero"/></clipPath><clipPath id="9d4e2c27b7"><path d="M 83.664062 21 L 96 21 L 96 25.988281 L 83.664062 25.988281 Z M 83.664062 21 " clip-rule="nonzero"/></clipPath><clipPath id="881edc1288"><path d="M 87 21 L 92 21 L 92 25.988281 L 87 25.988281 Z M 87 21 " clip-rule="nonzero"/></clipPath><clipPath id="648fe905f6"><path d="M 83.664062 13.648438 L 96 13.648438 L 96 19 L 83.664062 19 Z M 83.664062 13.648438 " clip-rule="nonzero"/></clipPath></defs><g clip-path="url(#557287e011)"><path fill="#fa0b0b" d="M 2.753906 17.988281 C 8.574219 10.542969 21.121094 8.664062 34.960938 8.835938 C 42.183594 4.984375 47.695312 2.394531 53.203125 1.554688 C 63.433594 0 77.363281 4.585938 87.351562 6.898438 C 84.140625 7.085938 81.105469 7.371094 78.320312 7.804688 C 90.203125 7.296875 98.425781 7.773438 103.347656 9.15625 C 101.386719 10.496094 99.097656 11.800781 96.972656 12.882812 C 97.691406 14.613281 98.199219 16.371094 98.320312 18.316406 C 96.300781 12.875 91.472656 10.234375 86.191406 13.09375 C 78.761719 11.925781 70.777344 10.902344 63.175781 10.160156 C 64.113281 9.800781 65.011719 9.269531 65.554688 8.582031 C 59.464844 8.828125 53.269531 9.246094 47.695312 9.742188 C 57.125 10.40625 66.363281 11.703125 75.367188 13.226562 C 60.894531 12.015625 43.894531 9.039062 32.800781 10.617188 C 38.761719 11.074219 45.535156 12.105469 49.957031 13.804688 C 41.054688 12.144531 32.539062 11.425781 26.875 13.289062 C 22.503906 11.335938 18.367188 12.59375 14.425781 16.835938 C 14.851562 15.667969 15.074219 14.546875 14.910156 13.550781 C 13.652344 15.097656 11.820312 16.273438 9.480469 17.023438 C 7.570312 17.628906 5.992188 16.664062 2.753906 17.988281 Z M 39.011719 8.703125 C 50.5625 1.167969 61.664062 2.175781 72.769531 5.679688 C 70.613281 6.324219 68.789062 7.226562 67.417969 8.476562 C 58.132812 7.8125 47.703125 9.152344 39.011719 8.703125 Z M 5.417969 16.566406 C 7.855469 14.710938 11.019531 13.445312 14.671875 12.570312 C 13.554688 14.019531 11.875 15.269531 9.769531 16.378906 C 8.769531 16.429688 7.90625 16.183594 7.003906 16.214844 C 6.441406 16.167969 5.925781 16.324219 5.417969 16.566406 Z M 12.148438 16.46875 C 11.050781 17.703125 10.113281 18.972656 9.703125 20.375 C 10.789062 21.511719 11.933594 22.601562 11.4375 24.984375 C 12.335938 26.621094 12.089844 27.527344 10.726562 27.78125 C 5.804688 28.417969 1.644531 28.476562 2.0625 23.753906 C 3.964844 24.398438 6.253906 24.144531 7.765625 25.011719 C 4.054688 24.628906 3.515625 25.984375 5.191406 26.589844 C 7.070312 26.914062 8.640625 26.933594 9.320312 26.34375 C 11.410156 24.539062 8.011719 23.484375 6.671875 23.261719 C 5.417969 23.042969 4.023438 23.058594 2.542969 23.164062 C 2.632812 21.726562 2.421875 20.394531 1.996094 19.140625 C 3.457031 20.179688 5.445312 20.195312 6.996094 20.074219 C 8.304688 18.824219 10.191406 17.539062 12.148438 16.46875 Z M 12.148438 16.46875 " fill-opacity="1" fill-rule="evenodd"/></g><g clip-path="url(#9d4e2c27b7)"><path fill="#fa0b0b" d="M 85.949219 21.609375 C 86.128906 21.570312 86.34375 21.5 86.5625 21.375 L 87.054688 21.375 C 86.6875 21.695312 86.261719 21.835938 85.957031 21.898438 C 85.496094 21.828125 85.046875 22.007812 84.621094 22.429688 C 84 23.054688 83.992188 23.460938 83.992188 23.480469 L 83.992188 23.542969 L 85.378906 22.878906 C 85.460938 22.90625 85.84375 23.058594 86.078125 23.472656 C 86.222656 23.734375 86.246094 24.050781 86.140625 24.34375 C 85.804688 24.527344 84.761719 25.015625 84.71875 25.035156 L 84.722656 25.046875 L 84.71875 25.035156 L 84.648438 25.066406 L 84.714844 25.105469 C 84.71875 25.105469 85.042969 25.285156 85.464844 25.355469 C 85.566406 25.371094 85.675781 25.382812 85.789062 25.382812 C 86.140625 25.382812 86.542969 25.285156 86.890625 24.9375 C 87.363281 24.464844 87.464844 23.964844 87.460938 23.628906 C 87.511719 23.242188 87.667969 22.6875 88.113281 22.242188 L 88.980469 21.375 L 90.265625 21.375 C 90.265625 21.445312 90.253906 21.519531 90.207031 21.585938 C 90.066406 21.792969 89.917969 21.859375 90.09375 22.082031 C 90.261719 22.292969 90.632812 21.976562 90.902344 22.1875 C 90.917969 22.199219 90.933594 22.214844 90.949219 22.230469 C 90.953125 22.234375 90.953125 22.234375 90.957031 22.238281 C 90.960938 22.238281 90.960938 22.238281 90.960938 22.238281 C 91.65625 22.933594 92.15625 24.238281 92.957031 25.039062 C 93.757812 25.839844 94.949219 26.117188 95.550781 25.515625 C 96.15625 24.910156 95.773438 23.820312 94.972656 23.023438 C 94.3125 22.363281 93.304688 21.90625 92.585938 21.371094 L 93.089844 21.371094 C 93.261719 21.484375 93.441406 21.59375 93.628906 21.707031 C 93.792969 21.808594 93.960938 21.90625 94.121094 22.011719 C 94.136719 21.984375 94.152344 21.953125 94.167969 21.921875 L 94.191406 21.875 L 94.636719 22.015625 C 94.699219 22.039062 94.773438 22 94.792969 21.9375 L 94.972656 21.375 L 95.996094 21.375 L 95.996094 21.058594 L 83.664062 21.058594 L 83.664062 21.375 L 84.6875 21.375 L 84.855469 21.875 C 85.144531 21.691406 85.449219 21.597656 85.757812 21.597656 C 85.824219 21.597656 85.886719 21.601562 85.949219 21.609375 Z M 92.386719 21.375 C 92.6875 21.609375 93.042969 21.828125 93.417969 22.058594 C 93.941406 22.375 94.484375 22.707031 94.890625 23.109375 C 95.28125 23.503906 95.558594 23.949219 95.671875 24.375 C 95.753906 24.679688 95.785156 25.113281 95.46875 25.429688 C 95.328125 25.570312 95.144531 25.660156 94.929688 25.699219 C 96.253906 24.933594 94.855469 23.261719 93.75 22.550781 C 93.023438 22.085938 92.578125 21.710938 92.277344 21.375 Z M 85.726562 22.839844 C 85.726562 22.839844 86.664062 23 86.355469 24.183594 C 86.355469 24.183594 86.457031 23.230469 85.726562 22.839844 Z M 84.992188 25.054688 L 86.230469 24.457031 C 86.230469 24.457031 85.832031 24.867188 84.992188 25.054688 Z M 87.351562 23.738281 C 87.328125 24.152344 87.140625 24.542969 86.816406 24.867188 C 86.515625 25.164062 86.171875 25.265625 85.863281 25.28125 C 86.132812 25.242188 86.429688 25.128906 86.691406 24.867188 C 87.015625 24.542969 87.207031 24.15625 87.242188 23.753906 C 87.246094 23.707031 87.246094 23.660156 87.246094 23.617188 C 87.246094 23.167969 87.054688 22.816406 86.875 22.636719 C 86.507812 22.265625 86.128906 22.078125 85.75 22.078125 C 85.699219 22.078125 85.648438 22.082031 85.59375 22.085938 C 85.277344 22.128906 84.960938 22.304688 84.660156 22.605469 C 84.304688 22.964844 84.15625 23.238281 84.097656 23.40625 C 84.128906 23.265625 84.242188 22.941406 84.679688 22.503906 C 84.984375 22.199219 85.300781 22.027344 85.625 21.992188 C 85.675781 21.988281 85.730469 21.984375 85.78125 21.988281 C 86.171875 22 86.5625 22.199219 86.949219 22.589844 C 87.136719 22.773438 87.339844 23.140625 87.351562 23.601562 C 87.355469 23.644531 87.355469 23.691406 87.351562 23.738281 Z M 87.933594 21.859375 C 87.835938 21.953125 87.667969 21.945312 87.558594 21.835938 C 87.449219 21.726562 87.441406 21.558594 87.539062 21.464844 L 87.625 21.375 L 88.414062 21.375 Z M 87.933594 21.859375 " fill-opacity="1" fill-rule="nonzero"/></g><g clip-path="url(#881edc1288)"><path fill="#fa0b0b" d="M 90.765625 22.445312 C 90.765625 22.445312 90.761719 22.441406 90.761719 22.441406 L 90.820312 22.378906 L 90.785156 22.402344 L 90.753906 22.433594 C 90.753906 22.433594 90.753906 22.429688 90.753906 22.429688 C 90.753906 22.429688 90.753906 22.433594 90.753906 22.433594 C 90.753906 22.429688 90.753906 22.429688 90.75 22.429688 C 90.742188 22.421875 90.734375 22.414062 90.726562 22.40625 C 90.71875 22.402344 90.703125 22.394531 90.667969 22.394531 C 90.621094 22.394531 90.5625 22.40625 90.503906 22.417969 C 90.429688 22.429688 90.355469 22.441406 90.273438 22.441406 C 90.0625 22.441406 89.941406 22.34375 89.875 22.261719 C 89.859375 22.246094 89.851562 22.226562 89.839844 22.214844 C 89.835938 22.214844 89.835938 22.214844 89.832031 22.214844 C 89.457031 22.214844 89.101562 22.128906 88.78125 21.976562 L 88.316406 22.441406 C 87.933594 22.824219 87.800781 23.304688 87.75 23.648438 C 87.75 23.785156 87.734375 23.941406 87.691406 24.113281 C 88.144531 24.335938 88.625 24.484375 89.121094 24.558594 L 89.175781 24.566406 L 89.175781 25.03125 C 89.175781 25.066406 89.191406 25.097656 89.214844 25.121094 C 89.238281 25.144531 89.269531 25.160156 89.300781 25.160156 L 90.40625 25.152344 C 90.4375 25.152344 90.46875 25.140625 90.492188 25.117188 C 90.515625 25.09375 90.53125 25.0625 90.53125 25.027344 L 90.527344 24.5625 L 90.582031 24.554688 C 91.046875 24.484375 91.496094 24.34375 91.917969 24.140625 C 91.824219 23.992188 91.734375 23.84375 91.644531 23.691406 C 91.351562 23.210938 91.074219 22.757812 90.765625 22.445312 Z M 90.765625 22.445312 " fill-opacity="1" fill-rule="nonzero"/></g><path fill="#fa0b0b" d="M 87.648438 16.929688 C 87.648438 16.929688 87.644531 16.933594 87.644531 16.933594 L 88.457031 17.742188 C 88.851562 17.476562 89.324219 17.320312 89.832031 17.320312 C 90.09375 17.320312 90.347656 17.363281 90.585938 17.441406 L 91.007812 17.019531 C 91.484375 16.542969 91.574219 15.902344 91.589844 15.640625 C 91.589844 15.585938 91.589844 15.53125 91.59375 15.476562 L 91.59375 15.253906 C 91.253906 15.121094 90.902344 15.027344 90.539062 14.972656 L 90.484375 14.964844 L 90.484375 14.5 C 90.484375 14.46875 90.46875 14.4375 90.445312 14.414062 C 90.421875 14.390625 90.390625 14.375 90.359375 14.375 L 89.253906 14.378906 C 89.1875 14.378906 89.128906 14.4375 89.128906 14.507812 L 89.132812 14.972656 L 89.078125 14.980469 C 88.554688 15.058594 88.054688 15.226562 87.585938 15.472656 L 87.539062 15.496094 L 87.261719 15.121094 C 87.222656 15.066406 87.144531 15.050781 87.085938 15.09375 L 86.347656 15.636719 L 87.640625 16.929688 C 87.648438 16.933594 87.648438 16.929688 87.648438 16.929688 Z M 87.648438 16.929688 " fill-opacity="1" fill-rule="nonzero"/><g clip-path="url(#648fe905f6)"><path fill="#fa0b0b" d="M 96 18.480469 L 96 18.164062 L 94.976562 18.164062 L 94.777344 17.558594 C 94.769531 17.53125 94.753906 17.511719 94.730469 17.496094 C 94.558594 17.609375 94.386719 17.6875 94.207031 17.742188 L 94.203125 17.816406 C 94.203125 17.816406 93.894531 17.800781 93.894531 17.800781 C 93.84375 17.804688 93.792969 17.808594 93.742188 17.808594 C 93.734375 17.808594 93.722656 17.808594 93.710938 17.808594 C 93.523438 17.824219 93.242188 17.871094 92.949219 18 C 92.980469 18.054688 93.011719 18.109375 93.039062 18.164062 L 92.835938 18.164062 C 92.824219 18.132812 92.8125 18.101562 92.796875 18.074219 C 92.75 18.101562 92.699219 18.128906 92.648438 18.164062 L 92.195312 18.164062 C 92.707031 17.667969 93.355469 17.546875 93.703125 17.519531 C 93.71875 17.519531 93.730469 17.519531 93.742188 17.519531 C 93.789062 17.519531 93.835938 17.519531 93.882812 17.515625 C 93.894531 17.515625 93.902344 17.515625 93.90625 17.515625 L 93.933594 17.515625 L 93.933594 17.507812 C 94.296875 17.457031 94.648438 17.257812 94.984375 16.921875 C 95.664062 16.242188 95.671875 15.792969 95.671875 15.777344 L 95.671875 15.714844 L 94.15625 16.4375 C 94.070312 16.410156 93.648438 16.246094 93.390625 15.785156 C 93.226562 15.5 93.203125 15.152344 93.320312 14.828125 C 93.6875 14.625 94.828125 14.089844 94.878906 14.066406 L 94.949219 14.035156 L 94.882812 14 C 94.867188 13.988281 94.519531 13.796875 94.0625 13.726562 C 93.628906 13.65625 93.007812 13.679688 92.503906 14.179688 C 92.132812 14.550781 91.917969 14.992188 91.882812 15.460938 L 91.882812 15.488281 C 91.878906 15.542969 91.878906 15.59375 91.878906 15.644531 C 91.863281 15.9375 91.761719 16.671875 91.210938 17.222656 L 90.273438 18.160156 L 88.472656 18.160156 L 85.265625 14.957031 C 85.261719 14.953125 85.109375 14.820312 85.082031 14.6875 C 85.070312 14.628906 85.046875 14.582031 85.007812 14.546875 C 84.898438 14.457031 84.6875 14.292969 84.5 14.144531 C 84.363281 14.035156 84.242188 13.941406 84.195312 13.898438 C 84.175781 13.882812 84.144531 13.882812 84.125 13.902344 L 84.121094 13.902344 L 83.835938 14.1875 C 83.835938 14.1875 83.832031 14.191406 83.832031 14.191406 C 83.8125 14.21875 83.808594 14.253906 83.832031 14.28125 C 83.863281 14.320312 83.925781 14.398438 83.996094 14.488281 C 84.144531 14.683594 84.347656 14.949219 84.472656 15.085938 C 84.511719 15.128906 84.558594 15.152344 84.621094 15.164062 C 84.652344 15.171875 84.683594 15.1875 84.714844 15.203125 C 84.804688 15.253906 84.878906 15.339844 84.878906 15.339844 L 87.703125 18.164062 L 87.296875 18.164062 L 86.980469 17.84375 C 86.925781 17.945312 86.875 18.054688 86.828125 18.164062 L 86.628906 18.164062 C 86.703125 18.015625 86.785156 17.875 86.875 17.742188 L 85.972656 16.839844 C 85.789062 17.082031 85.628906 17.339844 85.492188 17.613281 L 85.46875 17.664062 L 85.027344 17.519531 C 84.960938 17.5 84.890625 17.535156 84.867188 17.601562 L 84.6875 18.164062 L 83.664062 18.164062 L 83.664062 18.480469 Z M 93.765625 16.453125 C 93.765625 16.453125 92.765625 16.28125 93.097656 15.023438 C 93.097656 15.023438 92.988281 16.035156 93.765625 16.453125 Z M 94.550781 14.09375 L 93.230469 14.726562 C 93.230469 14.726562 93.652344 14.292969 94.550781 14.09375 Z M 92.605469 14.289062 C 92.921875 13.972656 93.292969 13.863281 93.621094 13.847656 C 93.332031 13.890625 93.019531 14.011719 92.738281 14.289062 C 92.394531 14.636719 92.191406 15.046875 92.152344 15.476562 C 92.148438 15.527344 92.144531 15.574219 92.144531 15.621094 C 92.144531 16.101562 92.347656 16.476562 92.539062 16.667969 C 92.933594 17.0625 93.339844 17.261719 93.742188 17.265625 C 93.796875 17.265625 93.851562 17.261719 93.90625 17.253906 C 94.246094 17.210938 94.582031 17.023438 94.902344 16.699219 C 95.28125 16.320312 95.4375 16.023438 95.503906 15.847656 C 95.472656 16 95.347656 16.34375 94.882812 16.8125 C 94.558594 17.136719 94.21875 17.316406 93.871094 17.355469 C 93.816406 17.363281 93.761719 17.363281 93.703125 17.363281 C 93.292969 17.351562 92.871094 17.132812 92.460938 16.722656 C 92.261719 16.519531 92.042969 16.132812 92.03125 15.640625 C 92.03125 15.59375 92.03125 15.542969 92.035156 15.496094 C 92.058594 15.054688 92.257812 14.640625 92.605469 14.289062 Z M 91.582031 17.421875 C 91.679688 17.328125 91.847656 17.335938 91.953125 17.445312 C 92.0625 17.554688 92.070312 17.71875 91.976562 17.816406 L 91.628906 18.164062 L 90.839844 18.164062 Z M 84.167969 13.917969 L 84.167969 13.921875 C 84.164062 13.917969 84.164062 13.917969 84.164062 13.917969 C 84.164062 13.917969 84.167969 13.917969 84.167969 13.917969 Z M 84.972656 14.964844 C 84.972656 14.964844 84.925781 14.710938 84.757812 14.59375 C 84.597656 14.476562 84.167969 14.082031 84.140625 14.058594 L 84.175781 14.082031 L 84.199219 14.058594 C 84.253906 14.105469 84.328125 14.160156 84.40625 14.222656 L 84.4375 14.25 C 84.617188 14.390625 84.824219 14.554688 84.929688 14.644531 C 84.945312 14.65625 84.957031 14.679688 84.964844 14.710938 C 84.996094 14.871094 85.144531 15.015625 85.183594 15.046875 L 88.300781 18.167969 L 88.144531 18.167969 Z M 84.972656 14.964844 " fill-opacity="1" fill-rule="nonzero"/></g><g fill="#fa0b0b" fill-opacity="1"><g transform="translate(13.117157, 24.42421)"><g><path d="M 1.640625 0 L 0.203125 0 L 2.390625 -6.3125 L 4.109375 -6.3125 L 6.28125 0 L 4.859375 0 L 4.390625 -1.4375 L 2.109375 -1.4375 Z M 2.453125 -2.484375 L 4.046875 -2.484375 L 3.265625 -4.875 L 3.21875 -4.875 Z M 2.453125 -2.484375 "/></g></g></g><g fill="#fa0b0b" fill-opacity="1"><g transform="translate(19.612399, 24.42421)"><g><path d="M 4.46875 -6.3125 L 5.78125 -6.3125 L 5.78125 -2.140625 C 5.78125 -1.660156 5.664062 -1.253906 5.4375 -0.921875 C 5.21875 -0.585938 4.910156 -0.332031 4.515625 -0.15625 C 4.128906 0.0078125 3.679688 0.09375 3.171875 0.09375 C 2.660156 0.09375 2.207031 0.0078125 1.8125 -0.15625 C 1.414062 -0.332031 1.101562 -0.585938 0.875 -0.921875 C 0.65625 -1.253906 0.546875 -1.660156 0.546875 -2.140625 L 0.546875 -6.3125 L 1.890625 -6.3125 L 1.890625 -2.1875 C 1.890625 -1.851562 2.007812 -1.585938 2.25 -1.390625 C 2.488281 -1.191406 2.796875 -1.09375 3.171875 -1.09375 C 3.546875 -1.09375 3.851562 -1.191406 4.09375 -1.390625 C 4.34375 -1.585938 4.46875 -1.851562 4.46875 -2.1875 Z M 4.46875 -6.3125 "/></g></g></g><g fill="#fa0b0b" fill-opacity="1"><g transform="translate(25.947273, 24.42421)"><g><path d="M 0.3125 -5.21875 L 0.3125 -6.3125 L 5.5 -6.3125 L 5.5 -5.21875 L 3.5625 -5.21875 L 3.5625 0 L 2.25 0 L 2.25 -5.21875 Z M 0.3125 -5.21875 "/></g></g></g><g fill="#fa0b0b" fill-opacity="1"><g transform="translate(31.751668, 24.42421)"><g><path d="M 6.359375 -3.15625 C 6.359375 -2.46875 6.226562 -1.878906 5.96875 -1.390625 C 5.707031 -0.910156 5.351562 -0.539062 4.90625 -0.28125 C 4.457031 -0.03125 3.953125 0.09375 3.390625 0.09375 C 2.828125 0.09375 2.320312 -0.03125 1.875 -0.28125 C 1.4375 -0.539062 1.085938 -0.910156 0.828125 -1.390625 C 0.566406 -1.878906 0.4375 -2.46875 0.4375 -3.15625 C 0.4375 -3.84375 0.566406 -4.425781 0.828125 -4.90625 C 1.085938 -5.394531 1.4375 -5.765625 1.875 -6.015625 C 2.320312 -6.273438 2.828125 -6.40625 3.390625 -6.40625 C 3.953125 -6.40625 4.457031 -6.273438 4.90625 -6.015625 C 5.351562 -5.765625 5.707031 -5.394531 5.96875 -4.90625 C 6.226562 -4.425781 6.359375 -3.84375 6.359375 -3.15625 Z M 5 -3.15625 C 5 -3.832031 4.851562 -4.34375 4.5625 -4.6875 C 4.269531 -5.039062 3.878906 -5.21875 3.390625 -5.21875 C 2.910156 -5.21875 2.523438 -5.039062 2.234375 -4.6875 C 1.941406 -4.34375 1.796875 -3.832031 1.796875 -3.15625 C 1.796875 -2.488281 1.941406 -1.976562 2.234375 -1.625 C 2.523438 -1.269531 2.910156 -1.09375 3.390625 -1.09375 C 3.878906 -1.09375 4.269531 -1.269531 4.5625 -1.625 C 4.851562 -1.976562 5 -2.488281 5 -3.15625 Z M 5 -3.15625 "/></g></g></g><g fill="#fa0b0b" fill-opacity="1"><g transform="translate(38.542995, 24.42421)"><g><path d="M 6.125 -4.109375 L 4.765625 -4.109375 C 4.722656 -4.453125 4.578125 -4.722656 4.328125 -4.921875 C 4.085938 -5.117188 3.78125 -5.21875 3.40625 -5.21875 C 2.914062 -5.21875 2.523438 -5.035156 2.234375 -4.671875 C 1.941406 -4.316406 1.796875 -3.8125 1.796875 -3.15625 C 1.796875 -2.476562 1.941406 -1.960938 2.234375 -1.609375 C 2.535156 -1.265625 2.925781 -1.09375 3.40625 -1.09375 C 3.757812 -1.09375 4.054688 -1.1875 4.296875 -1.375 C 4.546875 -1.5625 4.703125 -1.820312 4.765625 -2.15625 L 6.125 -2.15625 C 6.070312 -1.769531 5.929688 -1.40625 5.703125 -1.0625 C 5.484375 -0.71875 5.175781 -0.4375 4.78125 -0.21875 C 4.382812 -0.0078125 3.914062 0.09375 3.375 0.09375 C 2.8125 0.09375 2.304688 -0.03125 1.859375 -0.28125 C 1.421875 -0.539062 1.070312 -0.910156 0.8125 -1.390625 C 0.5625 -1.878906 0.4375 -2.46875 0.4375 -3.15625 C 0.4375 -3.84375 0.566406 -4.425781 0.828125 -4.90625 C 1.085938 -5.394531 1.4375 -5.765625 1.875 -6.015625 C 2.320312 -6.273438 2.820312 -6.40625 3.375 -6.40625 C 3.863281 -6.40625 4.300781 -6.3125 4.6875 -6.125 C 5.082031 -5.945312 5.40625 -5.6875 5.65625 -5.34375 C 5.90625 -5.007812 6.0625 -4.597656 6.125 -4.109375 Z M 6.125 -4.109375 "/></g></g></g><g fill="#fa0b0b" fill-opacity="1"><g transform="translate(45.075255, 24.42421)"><g><path d="M 6.359375 -3.15625 C 6.359375 -2.46875 6.226562 -1.878906 5.96875 -1.390625 C 5.707031 -0.910156 5.351562 -0.539062 4.90625 -0.28125 C 4.457031 -0.03125 3.953125 0.09375 3.390625 0.09375 C 2.828125 0.09375 2.320312 -0.03125 1.875 -0.28125 C 1.4375 -0.539062 1.085938 -0.910156 0.828125 -1.390625 C 0.566406 -1.878906 0.4375 -2.46875 0.4375 -3.15625 C 0.4375 -3.84375 0.566406 -4.425781 0.828125 -4.90625 C 1.085938 -5.394531 1.4375 -5.765625 1.875 -6.015625 C 2.320312 -6.273438 2.828125 -6.40625 3.390625 -6.40625 C 3.953125 -6.40625 4.457031 -6.273438 4.90625 -6.015625 C 5.351562 -5.765625 5.707031 -5.394531 5.96875 -4.90625 C 6.226562 -4.425781 6.359375 -3.84375 6.359375 -3.15625 Z M 5 -3.15625 C 5 -3.832031 4.851562 -4.34375 4.5625 -4.6875 C 4.269531 -5.039062 3.878906 -5.21875 3.390625 -5.21875 C 2.910156 -5.21875 2.523438 -5.039062 2.234375 -4.6875 C 1.941406 -4.34375 1.796875 -3.832031 1.796875 -3.15625 C 1.796875 -2.488281 1.941406 -1.976562 2.234375 -1.625 C 2.523438 -1.269531 2.910156 -1.09375 3.390625 -1.09375 C 3.878906 -1.09375 4.269531 -1.269531 4.5625 -1.625 C 4.851562 -1.976562 5 -2.488281 5 -3.15625 Z M 5 -3.15625 "/></g></g></g><g fill="#fa0b0b" fill-opacity="1"><g transform="translate(51.866582, 24.42421)"><g><path d="M 5.828125 -6.3125 L 5.828125 0 L 4.6875 0 L 1.9375 -3.984375 L 1.890625 -3.984375 L 1.890625 0 L 0.546875 0 L 0.546875 -6.3125 L 1.71875 -6.3125 L 4.453125 -2.34375 L 4.5 -2.34375 L 4.5 -6.3125 Z M 5.828125 -6.3125 "/></g></g></g><g fill="#fa0b0b" fill-opacity="1"><g transform="translate(58.2508, 24.42421)"><g><path d="M 5.828125 -6.3125 L 5.828125 0 L 4.6875 0 L 1.9375 -3.984375 L 1.890625 -3.984375 L 1.890625 0 L 0.546875 0 L 0.546875 -6.3125 L 1.71875 -6.3125 L 4.453125 -2.34375 L 4.5 -2.34375 L 4.5 -6.3125 Z M 5.828125 -6.3125 "/></g></g></g><g fill="#fa0b0b" fill-opacity="1"><g transform="translate(64.635019, 24.42421)"><g><path d="M 0.546875 0 L 0.546875 -6.3125 L 4.8125 -6.3125 L 4.8125 -5.21875 L 1.890625 -5.21875 L 1.890625 -3.71875 L 4.59375 -3.71875 L 4.59375 -2.609375 L 1.890625 -2.609375 L 1.890625 -1.09375 L 4.8125 -1.09375 L 4.8125 0 Z M 0.546875 0 "/></g></g></g><g fill="#fa0b0b" fill-opacity="1"><g transform="translate(69.955197, 24.42421)"><g><path d="M 6.125 -4.109375 L 4.765625 -4.109375 C 4.722656 -4.453125 4.578125 -4.722656 4.328125 -4.921875 C 4.085938 -5.117188 3.78125 -5.21875 3.40625 -5.21875 C 2.914062 -5.21875 2.523438 -5.035156 2.234375 -4.671875 C 1.941406 -4.316406 1.796875 -3.8125 1.796875 -3.15625 C 1.796875 -2.476562 1.941406 -1.960938 2.234375 -1.609375 C 2.535156 -1.265625 2.925781 -1.09375 3.40625 -1.09375 C 3.757812 -1.09375 4.054688 -1.1875 4.296875 -1.375 C 4.546875 -1.5625 4.703125 -1.820312 4.765625 -2.15625 L 6.125 -2.15625 C 6.070312 -1.769531 5.929688 -1.40625 5.703125 -1.0625 C 5.484375 -0.71875 5.175781 -0.4375 4.78125 -0.21875 C 4.382812 -0.0078125 3.914062 0.09375 3.375 0.09375 C 2.8125 0.09375 2.304688 -0.03125 1.859375 -0.28125 C 1.421875 -0.539062 1.070312 -0.910156 0.8125 -1.390625 C 0.5625 -1.878906 0.4375 -2.46875 0.4375 -3.15625 C 0.4375 -3.84375 0.566406 -4.425781 0.828125 -4.90625 C 1.085938 -5.394531 1.4375 -5.765625 1.875 -6.015625 C 2.320312 -6.273438 2.820312 -6.40625 3.375 -6.40625 C 3.863281 -6.40625 4.300781 -6.3125 4.6875 -6.125 C 5.082031 -5.945312 5.40625 -5.6875 5.65625 -5.34375 C 5.90625 -5.007812 6.0625 -4.597656 6.125 -4.109375 Z M 6.125 -4.109375 "/></g></g></g><g fill="#fa0b0b" fill-opacity="1"><g transform="translate(76.487457, 24.42421)"><g><path d="M 0.3125 -5.21875 L 0.3125 -6.3125 L 5.5 -6.3125 L 5.5 -5.21875 L 3.5625 -5.21875 L 3.5625 0 L 2.25 0 L 2.25 -5.21875 Z M 0.3125 -5.21875 "/></g></g></g></svg>