<svg xmlns="http://www.w3.org/2000/svg" xmlns:xlink="http://www.w3.org/1999/xlink" width="130" zoomAndPan="magnify" viewBox="0 0 97.5 30.000001" height="40" preserveAspectRatio="xMidYMid meet" version="1.0"><defs><g/><clipPath id="998c57f39c"><path d="M 2.441406 2 L 94.621094 2 L 94.621094 27.90625 L 2.441406 27.90625 Z M 2.441406 2 " clip-rule="nonzero"/></clipPath><clipPath id="cf2c51ef70"><path d="M 76.539062 21 L 88.878906 21 L 88.878906 25.988281 L 76.539062 25.988281 Z M 76.539062 21 " clip-rule="nonzero"/></clipPath><clipPath id="35a7bf7103"><path d="M 80 21 L 85 21 L 85 25.988281 L 80 25.988281 Z M 80 21 " clip-rule="nonzero"/></clipPath><clipPath id="504651b407"><path d="M 76.539062 13.648438 L 88.878906 13.648438 L 88.878906 19 L 76.539062 19 Z M 76.539062 13.648438 " clip-rule="nonzero"/></clipPath></defs><g clip-path="url(#998c57f39c)"><path fill="#fa0b0b" d="M 3.445312 18.050781 C 8.710938 11.316406 20.0625 9.617188 32.585938 9.773438 C 39.121094 6.285156 44.109375 3.941406 49.089844 3.183594 C 58.34375 1.777344 70.949219 5.925781 79.988281 8.019531 C 77.082031 8.1875 74.335938 8.445312 71.816406 8.835938 C 82.566406 8.378906 90.007812 8.808594 94.460938 10.0625 C 92.6875 11.273438 90.617188 12.453125 88.695312 13.433594 C 89.34375 14.996094 89.804688 16.589844 89.910156 18.347656 C 88.085938 13.425781 83.71875 11.039062 78.9375 13.625 C 72.214844 12.566406 64.992188 11.640625 58.117188 10.96875 C 58.960938 10.644531 59.773438 10.164062 60.269531 9.542969 C 54.757812 9.765625 49.152344 10.144531 44.109375 10.589844 C 52.640625 11.191406 61 12.363281 69.144531 13.746094 C 56.050781 12.648438 40.671875 9.953125 30.632812 11.382812 C 36.027344 11.796875 42.152344 12.730469 46.152344 14.265625 C 38.097656 12.765625 30.394531 12.113281 25.269531 13.800781 C 21.316406 12.03125 17.574219 13.171875 14.003906 17.007812 C 14.390625 15.953125 14.59375 14.9375 14.445312 14.035156 C 13.308594 15.4375 11.648438 16.5 9.53125 17.175781 C 7.804688 17.726562 6.375 16.851562 3.445312 18.050781 Z M 36.25 9.648438 C 46.703125 2.832031 56.746094 3.746094 66.792969 6.914062 C 64.84375 7.496094 63.191406 8.316406 61.953125 9.445312 C 53.550781 8.84375 44.117188 10.054688 36.25 9.648438 Z M 5.855469 16.765625 C 8.0625 15.085938 10.925781 13.941406 14.226562 13.148438 C 13.21875 14.464844 11.695312 15.59375 9.792969 16.59375 C 8.886719 16.644531 8.109375 16.417969 7.289062 16.445312 C 6.78125 16.40625 6.316406 16.546875 5.855469 16.765625 Z M 11.945312 16.675781 C 10.953125 17.792969 10.105469 18.945312 9.734375 20.210938 C 10.714844 21.238281 11.75 22.226562 11.304688 24.378906 C 12.117188 25.863281 11.894531 26.683594 10.660156 26.914062 C 6.207031 27.488281 2.441406 27.542969 2.820312 23.269531 C 4.542969 23.851562 6.613281 23.621094 7.980469 24.40625 C 4.621094 24.0625 4.136719 25.289062 5.652344 25.835938 C 7.351562 26.128906 8.773438 26.148438 9.386719 25.613281 C 11.277344 23.980469 8.203125 23.027344 6.992188 22.824219 C 5.855469 22.628906 4.59375 22.640625 3.253906 22.734375 C 3.335938 21.4375 3.148438 20.230469 2.761719 19.09375 C 4.082031 20.035156 5.882812 20.046875 7.28125 19.941406 C 8.46875 18.808594 10.171875 17.644531 11.945312 16.675781 Z M 11.945312 16.675781 " fill-opacity="1" fill-rule="evenodd"/></g><g clip-path="url(#cf2c51ef70)"><path fill="#fa0b0b" d="M 78.820312 21.609375 C 79 21.570312 79.21875 21.5 79.4375 21.375 L 79.925781 21.375 C 79.5625 21.695312 79.136719 21.835938 78.832031 21.898438 C 78.371094 21.828125 77.921875 22.007812 77.496094 22.429688 C 76.875 23.054688 76.867188 23.460938 76.867188 23.480469 L 76.867188 23.542969 L 78.253906 22.878906 C 78.332031 22.90625 78.71875 23.058594 78.953125 23.472656 C 79.097656 23.734375 79.121094 24.050781 79.015625 24.34375 C 78.679688 24.527344 77.636719 25.015625 77.59375 25.035156 L 77.597656 25.046875 L 77.59375 25.035156 L 77.523438 25.066406 L 77.589844 25.105469 C 77.59375 25.105469 77.917969 25.285156 78.339844 25.355469 C 78.441406 25.371094 78.546875 25.382812 78.664062 25.382812 C 79.011719 25.382812 79.417969 25.285156 79.765625 24.9375 C 80.238281 24.464844 80.339844 23.964844 80.335938 23.628906 C 80.386719 23.242188 80.542969 22.6875 80.988281 22.242188 L 81.855469 21.375 L 83.136719 21.375 C 83.140625 21.445312 83.128906 21.519531 83.082031 21.585938 C 82.941406 21.792969 82.792969 21.859375 82.96875 22.082031 C 83.136719 22.292969 83.507812 21.976562 83.777344 22.1875 C 83.792969 22.199219 83.808594 22.214844 83.824219 22.230469 C 83.828125 22.234375 83.828125 22.234375 83.832031 22.238281 C 83.835938 22.238281 83.835938 22.238281 83.835938 22.238281 C 84.527344 22.933594 85.03125 24.238281 85.832031 25.039062 C 86.632812 25.839844 87.820312 26.117188 88.425781 25.515625 C 89.03125 24.910156 88.648438 23.820312 87.847656 23.023438 C 87.1875 22.363281 86.179688 21.90625 85.460938 21.371094 L 85.964844 21.371094 C 86.132812 21.484375 86.316406 21.59375 86.5 21.707031 C 86.667969 21.808594 86.835938 21.90625 86.996094 22.011719 C 87.011719 21.984375 87.027344 21.953125 87.042969 21.921875 L 87.066406 21.875 L 87.511719 22.015625 C 87.574219 22.039062 87.648438 22 87.667969 21.9375 L 87.847656 21.375 L 88.871094 21.375 L 88.871094 21.058594 L 76.539062 21.058594 L 76.539062 21.375 L 77.5625 21.375 L 77.726562 21.875 C 78.019531 21.691406 78.324219 21.597656 78.632812 21.597656 C 78.699219 21.597656 78.761719 21.601562 78.820312 21.609375 Z M 85.261719 21.375 C 85.5625 21.609375 85.917969 21.828125 86.292969 22.058594 C 86.816406 22.375 87.359375 22.707031 87.761719 23.109375 C 88.15625 23.503906 88.433594 23.949219 88.546875 24.375 C 88.628906 24.679688 88.660156 25.113281 88.34375 25.429688 C 88.203125 25.570312 88.019531 25.660156 87.804688 25.699219 C 89.128906 24.933594 87.726562 23.261719 86.625 22.550781 C 85.898438 22.085938 85.453125 21.710938 85.152344 21.375 Z M 78.601562 22.839844 C 78.601562 22.839844 79.539062 23 79.226562 24.183594 C 79.226562 24.183594 79.332031 23.230469 78.601562 22.839844 Z M 77.867188 25.054688 L 79.105469 24.457031 C 79.105469 24.457031 78.707031 24.867188 77.867188 25.054688 Z M 80.226562 23.738281 C 80.199219 24.152344 80.015625 24.542969 79.6875 24.867188 C 79.390625 25.164062 79.046875 25.265625 78.738281 25.28125 C 79.007812 25.242188 79.304688 25.128906 79.566406 24.867188 C 79.890625 24.542969 80.082031 24.15625 80.117188 23.753906 C 80.117188 23.707031 80.121094 23.660156 80.121094 23.617188 C 80.121094 23.167969 79.929688 22.816406 79.75 22.636719 C 79.378906 22.265625 79 22.078125 78.625 22.078125 C 78.570312 22.078125 78.523438 22.082031 78.46875 22.085938 C 78.152344 22.128906 77.835938 22.304688 77.535156 22.605469 C 77.179688 22.964844 77.03125 23.238281 76.972656 23.40625 C 77.003906 23.265625 77.117188 22.941406 77.554688 22.503906 C 77.859375 22.199219 78.175781 22.027344 78.5 21.992188 C 78.550781 21.988281 78.605469 21.984375 78.65625 21.988281 C 79.046875 22 79.4375 22.199219 79.824219 22.589844 C 80.011719 22.773438 80.214844 23.140625 80.226562 23.601562 C 80.230469 23.644531 80.230469 23.691406 80.226562 23.738281 Z M 80.804688 21.859375 C 80.710938 21.953125 80.542969 21.945312 80.433594 21.835938 C 80.324219 21.726562 80.316406 21.558594 80.414062 21.464844 L 80.5 21.375 L 81.289062 21.375 Z M 80.804688 21.859375 " fill-opacity="1" fill-rule="nonzero"/></g><g clip-path="url(#35a7bf7103)"><path fill="#fa0b0b" d="M 83.640625 22.445312 C 83.636719 22.445312 83.636719 22.441406 83.636719 22.441406 L 83.695312 22.378906 L 83.660156 22.402344 L 83.628906 22.433594 C 83.628906 22.433594 83.625 22.429688 83.625 22.429688 C 83.625 22.429688 83.628906 22.433594 83.628906 22.433594 C 83.625 22.429688 83.625 22.429688 83.625 22.429688 C 83.617188 22.421875 83.609375 22.414062 83.601562 22.40625 C 83.589844 22.402344 83.578125 22.394531 83.539062 22.394531 C 83.496094 22.394531 83.4375 22.40625 83.378906 22.417969 C 83.304688 22.429688 83.230469 22.441406 83.148438 22.441406 C 82.9375 22.441406 82.816406 22.34375 82.75 22.261719 C 82.734375 22.246094 82.726562 22.226562 82.714844 22.214844 C 82.710938 22.214844 82.707031 22.214844 82.707031 22.214844 C 82.332031 22.214844 81.976562 22.128906 81.65625 21.976562 L 81.191406 22.441406 C 80.808594 22.824219 80.675781 23.304688 80.625 23.648438 C 80.625 23.785156 80.609375 23.941406 80.566406 24.113281 C 81.019531 24.335938 81.5 24.484375 81.996094 24.558594 L 82.050781 24.566406 L 82.050781 25.03125 C 82.050781 25.066406 82.066406 25.097656 82.089844 25.121094 C 82.113281 25.144531 82.144531 25.160156 82.175781 25.160156 L 83.28125 25.152344 C 83.3125 25.152344 83.34375 25.140625 83.367188 25.117188 C 83.390625 25.09375 83.40625 25.0625 83.40625 25.027344 L 83.402344 24.5625 L 83.457031 24.554688 C 83.921875 24.484375 84.371094 24.34375 84.792969 24.140625 C 84.699219 23.992188 84.609375 23.84375 84.519531 23.691406 C 84.226562 23.210938 83.949219 22.757812 83.640625 22.445312 Z M 83.640625 22.445312 " fill-opacity="1" fill-rule="nonzero"/></g><path fill="#fa0b0b" d="M 80.523438 16.929688 C 80.519531 16.929688 80.519531 16.933594 80.519531 16.933594 L 81.332031 17.742188 C 81.722656 17.476562 82.199219 17.320312 82.707031 17.320312 C 82.96875 17.320312 83.222656 17.363281 83.460938 17.441406 L 83.882812 17.019531 C 84.359375 16.542969 84.449219 15.902344 84.464844 15.640625 C 84.464844 15.585938 84.464844 15.53125 84.46875 15.476562 L 84.46875 15.253906 C 84.128906 15.121094 83.777344 15.027344 83.414062 14.972656 L 83.359375 14.964844 L 83.359375 14.5 C 83.359375 14.46875 83.34375 14.4375 83.320312 14.414062 C 83.296875 14.390625 83.265625 14.375 83.230469 14.375 L 82.128906 14.378906 C 82.0625 14.378906 82.003906 14.4375 82.003906 14.507812 L 82.007812 14.972656 L 81.953125 14.980469 C 81.429688 15.058594 80.929688 15.226562 80.460938 15.472656 L 80.414062 15.496094 L 80.136719 15.121094 C 80.097656 15.066406 80.019531 15.050781 79.960938 15.09375 L 79.222656 15.636719 L 80.515625 16.929688 C 80.519531 16.933594 80.523438 16.929688 80.523438 16.929688 Z M 80.523438 16.929688 " fill-opacity="1" fill-rule="nonzero"/><g clip-path="url(#504651b407)"><path fill="#fa0b0b" d="M 88.875 18.480469 L 88.875 18.164062 L 87.851562 18.164062 L 87.652344 17.558594 C 87.644531 17.53125 87.628906 17.511719 87.605469 17.496094 C 87.433594 17.609375 87.261719 17.6875 87.082031 17.742188 L 87.078125 17.816406 C 87.078125 17.816406 86.769531 17.800781 86.769531 17.800781 C 86.71875 17.804688 86.667969 17.808594 86.617188 17.808594 C 86.609375 17.808594 86.597656 17.808594 86.585938 17.808594 C 86.398438 17.824219 86.117188 17.871094 85.824219 18 C 85.855469 18.054688 85.882812 18.109375 85.914062 18.164062 L 85.710938 18.164062 C 85.699219 18.132812 85.6875 18.101562 85.671875 18.074219 C 85.621094 18.101562 85.574219 18.128906 85.523438 18.164062 L 85.070312 18.164062 C 85.582031 17.667969 86.230469 17.546875 86.578125 17.519531 C 86.59375 17.519531 86.605469 17.519531 86.617188 17.519531 C 86.664062 17.519531 86.710938 17.519531 86.757812 17.515625 C 86.769531 17.515625 86.777344 17.515625 86.78125 17.515625 L 86.808594 17.515625 L 86.808594 17.507812 C 87.167969 17.457031 87.523438 17.257812 87.859375 16.921875 C 88.539062 16.242188 88.546875 15.792969 88.546875 15.777344 L 88.546875 15.714844 L 87.03125 16.4375 C 86.945312 16.410156 86.523438 16.246094 86.261719 15.785156 C 86.101562 15.5 86.078125 15.152344 86.195312 14.828125 C 86.5625 14.625 87.703125 14.089844 87.753906 14.066406 L 87.824219 14.035156 L 87.757812 14 C 87.742188 13.988281 87.394531 13.796875 86.9375 13.726562 C 86.503906 13.65625 85.882812 13.679688 85.378906 14.179688 C 85.007812 14.550781 84.792969 14.992188 84.757812 15.460938 L 84.757812 15.488281 C 84.753906 15.542969 84.753906 15.59375 84.753906 15.644531 C 84.738281 15.9375 84.636719 16.671875 84.085938 17.222656 L 83.148438 18.160156 L 81.347656 18.160156 L 78.140625 14.957031 C 78.136719 14.953125 77.984375 14.820312 77.957031 14.6875 C 77.945312 14.628906 77.921875 14.582031 77.882812 14.546875 C 77.773438 14.457031 77.5625 14.292969 77.375 14.144531 C 77.238281 14.035156 77.117188 13.941406 77.070312 13.898438 C 77.050781 13.882812 77.019531 13.882812 77 13.902344 L 76.996094 13.902344 L 76.710938 14.1875 C 76.710938 14.1875 76.707031 14.191406 76.707031 14.191406 C 76.6875 14.21875 76.683594 14.253906 76.707031 14.28125 C 76.738281 14.320312 76.800781 14.398438 76.871094 14.488281 C 77.019531 14.683594 77.222656 14.949219 77.347656 15.085938 C 77.382812 15.128906 77.433594 15.152344 77.496094 15.164062 C 77.527344 15.171875 77.558594 15.1875 77.589844 15.203125 C 77.679688 15.253906 77.753906 15.339844 77.753906 15.339844 L 80.578125 18.164062 L 80.171875 18.164062 L 79.855469 17.84375 C 79.800781 17.945312 79.75 18.054688 79.703125 18.164062 L 79.503906 18.164062 C 79.578125 18.015625 79.660156 17.875 79.75 17.742188 L 78.847656 16.839844 C 78.664062 17.082031 78.503906 17.339844 78.367188 17.613281 L 78.34375 17.664062 L 77.902344 17.519531 C 77.835938 17.5 77.761719 17.535156 77.742188 17.601562 L 77.5625 18.164062 L 76.539062 18.164062 L 76.539062 18.480469 Z M 86.640625 16.453125 C 86.640625 16.453125 85.640625 16.28125 85.972656 15.023438 C 85.972656 15.023438 85.859375 16.035156 86.640625 16.453125 Z M 87.425781 14.09375 L 86.105469 14.726562 C 86.105469 14.726562 86.527344 14.292969 87.425781 14.09375 Z M 85.480469 14.289062 C 85.796875 13.972656 86.167969 13.863281 86.496094 13.847656 C 86.207031 13.890625 85.894531 14.011719 85.613281 14.289062 C 85.265625 14.636719 85.0625 15.046875 85.027344 15.476562 C 85.023438 15.527344 85.019531 15.574219 85.019531 15.621094 C 85.019531 16.101562 85.222656 16.476562 85.414062 16.667969 C 85.808594 17.0625 86.214844 17.261719 86.617188 17.265625 C 86.671875 17.265625 86.726562 17.261719 86.78125 17.253906 C 87.121094 17.210938 87.453125 17.023438 87.777344 16.699219 C 88.15625 16.320312 88.3125 16.023438 88.378906 15.847656 C 88.34375 16 88.222656 16.34375 87.757812 16.8125 C 87.433594 17.136719 87.09375 17.316406 86.746094 17.355469 C 86.691406 17.363281 86.632812 17.363281 86.578125 17.363281 C 86.167969 17.351562 85.746094 17.132812 85.335938 16.722656 C 85.132812 16.519531 84.917969 16.132812 84.90625 15.640625 C 84.90625 15.59375 84.90625 15.542969 84.910156 15.496094 C 84.933594 15.054688 85.132812 14.640625 85.480469 14.289062 Z M 84.457031 17.421875 C 84.550781 17.328125 84.71875 17.335938 84.828125 17.445312 C 84.9375 17.554688 84.945312 17.71875 84.847656 17.816406 L 84.503906 18.164062 L 83.714844 18.164062 Z M 77.042969 13.917969 L 77.039062 13.921875 C 77.039062 13.917969 77.039062 13.917969 77.039062 13.917969 C 77.039062 13.917969 77.039062 13.917969 77.042969 13.917969 Z M 77.847656 14.964844 C 77.847656 14.964844 77.800781 14.710938 77.632812 14.59375 C 77.472656 14.476562 77.042969 14.082031 77.015625 14.058594 L 77.050781 14.082031 L 77.074219 14.058594 C 77.128906 14.105469 77.203125 14.160156 77.28125 14.222656 L 77.3125 14.25 C 77.492188 14.390625 77.699219 14.554688 77.804688 14.644531 C 77.820312 14.65625 77.832031 14.679688 77.839844 14.710938 C 77.871094 14.871094 78.019531 15.015625 78.058594 15.046875 L 81.175781 18.167969 L 81.019531 18.167969 Z M 77.847656 14.964844 " fill-opacity="1" fill-rule="nonzero"/></g><g fill="#fa0b0b" fill-opacity="1"><g transform="translate(14.672482, 23.205587)"><g><path d="M 1.390625 0 L 0.171875 0 L 2.03125 -5.375 L 3.5 -5.375 L 5.34375 0 L 4.125 0 L 3.734375 -1.21875 L 1.796875 -1.21875 Z M 2.078125 -2.109375 L 3.453125 -2.109375 L 2.78125 -4.140625 L 2.75 -4.140625 Z M 2.078125 -2.109375 "/></g></g></g><g fill="#fa0b0b" fill-opacity="1"><g transform="translate(20.20227, 23.205587)"><g><path d="M 3.796875 -5.375 L 4.921875 -5.375 L 4.921875 -1.828125 C 4.921875 -1.421875 4.820312 -1.070312 4.625 -0.78125 C 4.4375 -0.5 4.175781 -0.285156 3.84375 -0.140625 C 3.507812 0.00390625 3.128906 0.078125 2.703125 0.078125 C 2.265625 0.078125 1.875 0.00390625 1.53125 -0.140625 C 1.195312 -0.285156 0.9375 -0.5 0.75 -0.78125 C 0.5625 -1.070312 0.46875 -1.421875 0.46875 -1.828125 L 0.46875 -5.375 L 1.609375 -5.375 L 1.609375 -1.859375 C 1.609375 -1.578125 1.707031 -1.351562 1.90625 -1.1875 C 2.113281 -1.019531 2.378906 -0.9375 2.703125 -0.9375 C 3.015625 -0.9375 3.273438 -1.019531 3.484375 -1.1875 C 3.691406 -1.351562 3.796875 -1.578125 3.796875 -1.859375 Z M 3.796875 -5.375 "/></g></g></g><g fill="#fa0b0b" fill-opacity="1"><g transform="translate(25.595527, 23.205587)"><g><path d="M 0.265625 -4.4375 L 0.265625 -5.375 L 4.671875 -5.375 L 4.671875 -4.4375 L 3.03125 -4.4375 L 3.03125 0 L 1.90625 0 L 1.90625 -4.4375 Z M 0.265625 -4.4375 "/></g></g></g><g fill="#fa0b0b" fill-opacity="1"><g transform="translate(30.537155, 23.205587)"><g><path d="M 5.40625 -2.6875 C 5.40625 -2.101562 5.296875 -1.601562 5.078125 -1.1875 C 4.859375 -0.78125 4.554688 -0.46875 4.171875 -0.25 C 3.796875 -0.03125 3.367188 0.078125 2.890625 0.078125 C 2.410156 0.078125 1.976562 -0.03125 1.59375 -0.25 C 1.21875 -0.46875 0.921875 -0.78125 0.703125 -1.1875 C 0.484375 -1.601562 0.375 -2.101562 0.375 -2.6875 C 0.375 -3.269531 0.484375 -3.765625 0.703125 -4.171875 C 0.921875 -4.585938 1.21875 -4.90625 1.59375 -5.125 C 1.976562 -5.34375 2.410156 -5.453125 2.890625 -5.453125 C 3.367188 -5.453125 3.796875 -5.34375 4.171875 -5.125 C 4.554688 -4.90625 4.859375 -4.585938 5.078125 -4.171875 C 5.296875 -3.765625 5.40625 -3.269531 5.40625 -2.6875 Z M 4.25 -2.6875 C 4.25 -3.257812 4.125 -3.691406 3.875 -3.984375 C 3.632812 -4.285156 3.304688 -4.4375 2.890625 -4.4375 C 2.472656 -4.4375 2.140625 -4.285156 1.890625 -3.984375 C 1.648438 -3.691406 1.53125 -3.257812 1.53125 -2.6875 C 1.53125 -2.113281 1.648438 -1.675781 1.890625 -1.375 C 2.140625 -1.082031 2.472656 -0.9375 2.890625 -0.9375 C 3.304688 -0.9375 3.632812 -1.082031 3.875 -1.375 C 4.125 -1.675781 4.25 -2.113281 4.25 -2.6875 Z M 4.25 -2.6875 "/></g></g></g><g fill="#fa0b0b" fill-opacity="1"><g transform="translate(36.319018, 23.205587)"><g><path d="M 5.203125 -3.5 L 4.0625 -3.5 C 4.019531 -3.789062 3.894531 -4.019531 3.6875 -4.1875 C 3.476562 -4.351562 3.21875 -4.4375 2.90625 -4.4375 C 2.488281 -4.4375 2.15625 -4.285156 1.90625 -3.984375 C 1.65625 -3.679688 1.53125 -3.25 1.53125 -2.6875 C 1.53125 -2.113281 1.65625 -1.675781 1.90625 -1.375 C 2.15625 -1.082031 2.484375 -0.9375 2.890625 -0.9375 C 3.191406 -0.9375 3.445312 -1.015625 3.65625 -1.171875 C 3.875 -1.328125 4.007812 -1.550781 4.0625 -1.84375 L 5.203125 -1.828125 C 5.171875 -1.503906 5.054688 -1.195312 4.859375 -0.90625 C 4.660156 -0.613281 4.394531 -0.375 4.0625 -0.1875 C 3.726562 -0.0078125 3.332031 0.078125 2.875 0.078125 C 2.394531 0.078125 1.96875 -0.03125 1.59375 -0.25 C 1.21875 -0.46875 0.921875 -0.78125 0.703125 -1.1875 C 0.484375 -1.601562 0.375 -2.101562 0.375 -2.6875 C 0.375 -3.269531 0.484375 -3.765625 0.703125 -4.171875 C 0.921875 -4.585938 1.21875 -4.90625 1.59375 -5.125 C 1.976562 -5.34375 2.40625 -5.453125 2.875 -5.453125 C 3.289062 -5.453125 3.664062 -5.375 4 -5.21875 C 4.332031 -5.0625 4.601562 -4.835938 4.8125 -4.546875 C 5.03125 -4.253906 5.160156 -3.90625 5.203125 -3.5 Z M 5.203125 -3.5 "/></g></g></g><g fill="#fa0b0b" fill-opacity="1"><g transform="translate(41.880322, 23.205587)"><g><path d="M 5.40625 -2.6875 C 5.40625 -2.101562 5.296875 -1.601562 5.078125 -1.1875 C 4.859375 -0.78125 4.554688 -0.46875 4.171875 -0.25 C 3.796875 -0.03125 3.367188 0.078125 2.890625 0.078125 C 2.410156 0.078125 1.976562 -0.03125 1.59375 -0.25 C 1.21875 -0.46875 0.921875 -0.78125 0.703125 -1.1875 C 0.484375 -1.601562 0.375 -2.101562 0.375 -2.6875 C 0.375 -3.269531 0.484375 -3.765625 0.703125 -4.171875 C 0.921875 -4.585938 1.21875 -4.90625 1.59375 -5.125 C 1.976562 -5.34375 2.410156 -5.453125 2.890625 -5.453125 C 3.367188 -5.453125 3.796875 -5.34375 4.171875 -5.125 C 4.554688 -4.90625 4.859375 -4.585938 5.078125 -4.171875 C 5.296875 -3.765625 5.40625 -3.269531 5.40625 -2.6875 Z M 4.25 -2.6875 C 4.25 -3.257812 4.125 -3.691406 3.875 -3.984375 C 3.632812 -4.285156 3.304688 -4.4375 2.890625 -4.4375 C 2.472656 -4.4375 2.140625 -4.285156 1.890625 -3.984375 C 1.648438 -3.691406 1.53125 -3.257812 1.53125 -2.6875 C 1.53125 -2.113281 1.648438 -1.675781 1.890625 -1.375 C 2.140625 -1.082031 2.472656 -0.9375 2.890625 -0.9375 C 3.304688 -0.9375 3.632812 -1.082031 3.875 -1.375 C 4.125 -1.675781 4.25 -2.113281 4.25 -2.6875 Z M 4.25 -2.6875 "/></g></g></g><g fill="#fa0b0b" fill-opacity="1"><g transform="translate(47.662184, 23.205587)"><g><path d="M 4.96875 -5.375 L 4.96875 0 L 3.984375 0 L 1.640625 -3.390625 L 1.609375 -3.390625 L 1.609375 0 L 0.46875 0 L 0.46875 -5.375 L 1.46875 -5.375 L 3.78125 -2 L 3.828125 -2 L 3.828125 -5.375 Z M 4.96875 -5.375 "/></g></g></g><g fill="#fa0b0b" fill-opacity="1"><g transform="translate(53.097451, 23.205587)"><g><path d="M 4.96875 -5.375 L 4.96875 0 L 3.984375 0 L 1.640625 -3.390625 L 1.609375 -3.390625 L 1.609375 0 L 0.46875 0 L 0.46875 -5.375 L 1.46875 -5.375 L 3.78125 -2 L 3.828125 -2 L 3.828125 -5.375 Z M 4.96875 -5.375 "/></g></g></g><g fill="#fa0b0b" fill-opacity="1"><g transform="translate(58.532717, 23.205587)"><g><path d="M 0.46875 0 L 0.46875 -5.375 L 4.09375 -5.375 L 4.09375 -4.4375 L 1.609375 -4.4375 L 1.609375 -3.15625 L 3.90625 -3.15625 L 3.90625 -2.21875 L 1.609375 -2.21875 L 1.609375 -0.9375 L 4.09375 -0.9375 L 4.09375 0 Z M 0.46875 0 "/></g></g></g><g fill="#fa0b0b" fill-opacity="1"><g transform="translate(63.062103, 23.205587)"><g><path d="M 5.203125 -3.5 L 4.0625 -3.5 C 4.019531 -3.789062 3.894531 -4.019531 3.6875 -4.1875 C 3.476562 -4.351562 3.21875 -4.4375 2.90625 -4.4375 C 2.488281 -4.4375 2.15625 -4.285156 1.90625 -3.984375 C 1.65625 -3.679688 1.53125 -3.25 1.53125 -2.6875 C 1.53125 -2.113281 1.65625 -1.675781 1.90625 -1.375 C 2.15625 -1.082031 2.484375 -0.9375 2.890625 -0.9375 C 3.191406 -0.9375 3.445312 -1.015625 3.65625 -1.171875 C 3.875 -1.328125 4.007812 -1.550781 4.0625 -1.84375 L 5.203125 -1.828125 C 5.171875 -1.503906 5.054688 -1.195312 4.859375 -0.90625 C 4.660156 -0.613281 4.394531 -0.375 4.0625 -0.1875 C 3.726562 -0.0078125 3.332031 0.078125 2.875 0.078125 C 2.394531 0.078125 1.96875 -0.03125 1.59375 -0.25 C 1.21875 -0.46875 0.921875 -0.78125 0.703125 -1.1875 C 0.484375 -1.601562 0.375 -2.101562 0.375 -2.6875 C 0.375 -3.269531 0.484375 -3.765625 0.703125 -4.171875 C 0.921875 -4.585938 1.21875 -4.90625 1.59375 -5.125 C 1.976562 -5.34375 2.40625 -5.453125 2.875 -5.453125 C 3.289062 -5.453125 3.664062 -5.375 4 -5.21875 C 4.332031 -5.0625 4.601562 -4.835938 4.8125 -4.546875 C 5.03125 -4.253906 5.160156 -3.90625 5.203125 -3.5 Z M 5.203125 -3.5 "/></g></g></g><g fill="#fa0b0b" fill-opacity="1"><g transform="translate(68.623407, 23.205587)"><g><path d="M 0.265625 -4.4375 L 0.265625 -5.375 L 4.671875 -5.375 L 4.671875 -4.4375 L 3.03125 -4.4375 L 3.03125 0 L 1.90625 0 L 1.90625 -4.4375 Z M 0.265625 -4.4375 "/></g></g></g></svg>